<svg xmlns:xlink="http://www.w3.org/1999/xlink" xmlns="http://www.w3.org/2000/svg" width="25" height="24" fill="none"><path fill="#FF492C" d="m16.093 16.249 2.252 3.8c-3.31 2.464-8.459 2.762-12.27-.076-4.386-3.269-5.107-8.846-2.76-12.86 2.702-4.618 7.756-5.64 11.01-4.89-.088.186-2.037 4.119-2.037 4.119s-.154.01-.24.011c-.963.04-1.68.258-2.447.644a5.77 5.77 0 0 0-2.103 1.81 5.566 5.566 0 0 0-.985 2.559 5.379 5.379 0 0 0 .384 2.743 5.6 5.6 0 0 0 1.333 1.935c.9.844 1.97 1.367 3.212 1.54 1.175.165 2.306.002 3.365-.516a6.87 6.87 0 0 0 1.13-.701c.05-.032.095-.072.156-.118z"/><path fill="#FF492C" d="M16.1 5.054c-.192-.184-.37-.353-.547-.524-.105-.102-.207-.208-.315-.307a1.91 1.91 0 0 1-.085-.085l.053-.107c.207-.404.532-.7.917-.935a2.603 2.603 0 0 1 1.426-.383c.645.012 1.244.168 1.75.589.374.31.565.704.599 1.174.056.793-.281 1.4-.951 1.825-.394.249-.819.442-1.244.67-.235.126-.436.237-.665.465a.795.795 0 0 0-.212.445l3.05-.004v1.321h-4.708v-.127c-.018-.65.06-1.26.366-1.85.28-.541.718-.937 1.243-1.242.404-.235.83-.435 1.235-.669.25-.144.427-.355.425-.662 0-.263-.197-.497-.478-.57a1.5 1.5 0 0 0-1.689.694c-.05.086-.103.172-.17.282zm5.9 9.792-2.57-4.317h-5.086l-2.587 4.362h5.124l2.528 4.297L22 14.846z"/></svg>