<svg xmlns:xlink="http://www.w3.org/1999/xlink" xmlns="http://www.w3.org/2000/svg" width="112" height="26" fill="none"><path fill="#000" d="M107.624.04c.116.023.23.053.347.074.294.054.543.177.786.356.262.194.4.467.585.708a.64.64 0 0 1 .124.362c.005.35-.017.702-.032 1.051-.001.044-.023.088-.04.13-.074.194-.147.39-.226.581-.057.138-.12.273-.182.41-.032.072-.072.14-.097.213-.06.17-.146.322-.266.397l-.191.488c-.038.098-.088.19-.112.291a.846.846 0 0 1-.19.38 2.339 2.339 0 0 0-.435.764.72.72 0 0 1-.27.353.665.665 0 0 0-.282.475c-.045.312-.221.567-.4.818a.44.44 0 0 1-.137.112c-.241.132-.325.35-.34.597-.01.146-.05.275-.179.351-.239.142-.369.37-.436.607-.082.294-.258.526-.425.766-.097.139-.224.257-.259.434-.01.05-.074.088-.112.13l-.186.196.018.037c.223-.016.444-.029.666-.052.253-.026.503-.068.756-.09.095-.007.194.028.326.05.223-.091.492-.118.768-.066a.416.416 0 0 0 .179 0c.386-.104.783-.084 1.176-.08.221 0 .438 0 .655-.056.077-.021.169.003.253.01.052.003.104.016.156.018.414.012.828.019 1.242.038.245.012.472.085.678.217a.44.44 0 0 1 .224.35c.005.07.028.138.043.203.054.024.097.04.136.065.139.088.144.267-.007.329-.17.07-.304.185-.45.286-.261.182-.535.198-.808.036a.683.683 0 0 0-.378-.09c-.192 0-.384-.03-.577-.047-.112-.01-.226-.03-.338-.026-.167.003-.332-.021-.495-.024-.294-.007-.599-.083-.89.043-.075.033-.17.025-.255.031-.193.015-.385.028-.579.04-.172.01-.345.029-.519.03-.281.004-.562-.003-.838.056a.27.27 0 0 1-.152-.013.584.584 0 0 0-.353-.026c-.045.008-.094.022-.139.018-.197-.017-.378.047-.565.092a3.113 3.113 0 0 1-.744.096c-.246 0-.408.077-.516.29a.946.946 0 0 1-.448.465c-.055.351-.356.44-.595.525-.099.12-.169.202-.238.288a1.715 1.715 0 0 0-.329.766c-.092.498-.163 1-.236 1.503-.025.168-.024.337-.042.506-.017.155-.043.308-.067.462-.005.033-.022.067-.015.095.077.317-.002.634-.003.951-.002.345-.025.688-.037 1.033a7.21 7.21 0 0 0 0 .465c.005.168.022.337.027.505.005.143.006.286 0 .427-.017.318-.044.635-.064.954a.414.414 0 0 0 .014.135c.087.336-.022.634-.223.898-.172.226-.43.273-.704.23a.958.958 0 0 1-.495-.242c-.168-.153-.244-.345-.183-.566.062-.224.067-.447.057-.677-.023-.551-.031-1.104-.056-1.657-.014-.287-.049-.571.013-.854a.239.239 0 0 0 .001-.098c-.07-.363-.028-.725-.011-1.088.007-.17-.007-.338 0-.508.011-.227.035-.453.052-.68.005-.068 0-.138 0-.204-.13-.017-.2.048-.266.11a.807.807 0 0 1-.397.217.372.372 0 0 0-.167.097 2.55 2.55 0 0 1-.606.413c-.282.148-.555.314-.84.457-.272.137-.553.256-.832.378-.164.071-.328.146-.499.203a3.443 3.443 0 0 1-.483.12c-.361.064-.724.118-1.087.173-.079.011-.16.005-.241.011-.132.01-.264.025-.396.033-.087.005-.176.013-.26-.002-.679-.122-1.316-.343-1.86-.77-.107-.085-.192-.196-.297-.303-.268.183-.56.273-.855.351-.27.073-.545.128-.821.168a1.55 1.55 0 0 1-.823-.12 3.853 3.853 0 0 1-1.196-.806c-.333-.324-.504-.734-.589-1.174a8.137 8.137 0 0 1-.152-1.08c-.019-.336.02-.676.042-1.012.055-.866.217-1.715.39-2.562.028-.14.03-.285.046-.426.029-.225.062-.448.097-.701-.058.068-.099.117-.142.162-.62.654-1.097 1.407-1.55 2.175-.176.298-.335.605-.496.912-.07.134-.155.254-.257.368a1.287 1.287 0 0 0-.275.423c-.112.337-.287.643-.443.958-.135.275-.284.545-.435.812a1.842 1.842 0 0 1-.237.337c-.142.154-.236.33-.29.527a2.007 2.007 0 0 1-.304.632c-.283.404-.56.809-.848 1.207-.064.088-.157.156-.238.233-.036.036-.078.068-.105.11-.06.093-.129.165-.25.175-.028.001-.054.029-.08.047-.014.011-.025.03-.04.044-.128.114-.712.283-.886.258a.62.62 0 0 1-.345-.184c-.052-.048-.103-.104-.167-.133-.248-.117-.356-.319-.4-.57a3.357 3.357 0 0 1 .022-1.166c.069-.383.147-.766.224-1.148.014-.063.035-.125.055-.187.005-.018.02-.036.022-.054.012-.105.005-.216.035-.317.029-.096.077-.184.089-.291.027-.244.079-.486.135-.727.059-.254.136-.503.203-.753a.265.265 0 0 0 .008-.116c-.177.22-.365.43-.488.682-.176.36-.403.688-.643 1.008-.27.363-.562.711-.834 1.072a2.063 2.063 0 0 1-.636.558.47.47 0 0 0-.23.257.503.503 0 0 1-.156.195c-.206.176-.418.344-.63.513-.03.024-.071.032-.105.053-.066.041-.13.083-.195.126-.084.053-.16.119-.25.16-.314.142-.628.284-.89.518-.11.1-.255.132-.407.137a.62.62 0 0 0-.246.053c-.183.09-.365.158-.576.14a.297.297 0 0 0-.133.03c-.373.16-.767.17-1.161.134-.253-.022-.502-.068-.755-.099a2.675 2.675 0 0 1-1.276-.527c-.17-.125-.338-.255-.505-.385a.905.905 0 0 1-.16-.147c-.276-.35-.583-.68-.747-1.1a.227.227 0 0 0-.056-.098c-.16-.13-.225-.306-.258-.495a.944.944 0 0 0-.162-.413c-.096-.13-.094-.28-.015-.426a.515.515 0 0 1-.087-.43c.006-.024.001-.052.001-.078l.002-1.187c0-.04-.003-.08.005-.117a.916.916 0 0 0-.015-.475c-.038-.145.023-.283.095-.409a.636.636 0 0 0 .086-.312.77.77 0 0 1 .09-.332.732.732 0 0 0 .099-.39c-.009-.173.052-.345.008-.52a.266.266 0 0 1 .017-.134c.055-.168.114-.334.172-.498.067-.187.176-.35.273-.442.08-.18.137-.303.19-.426.026-.059.05-.12.07-.18l.24-.722c.007-.017.023-.034.025-.052.043-.388.294-.704.39-1.076.047-.181.174-.35.292-.505a1.47 1.47 0 0 0 .256-.436c.122-.36.29-.697.53-.998a.71.71 0 0 0 .168-.409.594.594 0 0 1 .363-.543.423.423 0 0 0 .15-.15 16.72 16.72 0 0 1 1.33-1.685c.069-.078.15-.146.24-.203.141-.093.25-.212.34-.35.054-.08.12-.154.193-.22.092-.084.2-.152.294-.235.382-.339.835-.532 1.337-.628.23-.044.458-.085.695-.042.056.01.12 0 .176-.017a.728.728 0 0 1 .47.02c.213.075.397.187.554.341.124.12.246.24.364.363a.404.404 0 0 1 .072.132c.075.187.14.377.224.561.076.163.144.322.128.504a.381.381 0 0 0 .005.098c.068.563-.166 1.013-.56 1.402a.447.447 0 0 1-.18.117c-.204.06-.41.119-.62.151-.211.033-.355-.073-.41-.287-.08-.313-.07-.623.085-.913.174-.32.13-.626-.027-.932-.102-.2-.249-.246-.44-.12-.342.226-.697.44-1.008.702a4.778 4.778 0 0 0-.907.98c-.082.123-.21.216-.31.328a2.444 2.444 0 0 0-.235.288 31.31 31.31 0 0 0-.712 1.083c-.173.277-.323.568-.482.853-.052.09-.099.183-.154.273a2.592 2.592 0 0 0-.226.425 3.94 3.94 0 0 1-.408.71 1.024 1.024 0 0 0-.179.366c-.059.31-.17.6-.284.892-.173.444-.337.888-.537 1.322-.107.231-.146.5-.186.755-.069.45-.149.898-.29 1.332-.1.31-.118.625-.128.944-.015.475-.017.953.092 1.416.124.526.29 1.04.649 1.474.242.293.533.506.901.622.057.017.114.047.173.048.404.018.806.106 1.216.017.59-.127 1.162-.293 1.69-.588.088-.049.183-.083.268-.131.08-.046.17-.09.226-.157.18-.214.402-.377.63-.535.257-.177.521-.346.666-.634a.174.174 0 0 1 .07-.07c.213-.135.34-.345.487-.537.124-.16.266-.307.399-.462a.67.67 0 0 0 .108-.158 2.59 2.59 0 0 1 .37-.598c.336-.405.635-.835.9-1.29.164-.283.358-.548.538-.822.04-.06.082-.12.11-.185.07-.17.146-.329.275-.469.072-.078.104-.193.144-.296.035-.09.058-.187.082-.28.038-.152.107-.282.274-.344.017-.117.032-.233.05-.347.027-.162.1-.307.265-.364.185-.063.254-.207.29-.364.04-.163.096-.313.193-.446.146-.198.234-.42.323-.646.13-.333.28-.659.415-.99.062-.15.107-.306.159-.46.021-.063.031-.13.065-.183.145-.23.214-.488.298-.742.053-.162.112-.32.245-.44a.2.2 0 0 0 .064-.116c.027-.25.15-.454.303-.649.011-.015.02-.033.033-.057-.097-.185-.052-.358.066-.525.081-.117.145-.248.225-.386-.118-.185-.041-.345.069-.516.09-.14.137-.309.192-.468.045-.133.1-.255.238-.317-.084-.387.107-.695.28-1.028-.096-.269.056-.501.201-.726.097-.15.271-.153.435-.114.07.018.136.054.204.06.13 0 .268-.02.394.006.317.065.516.37.451.68a10.521 10.521 0 0 1-.562 1.846c-.127.305-.224.624-.333.938-.095.27-.177.545-.286.81-.274.662-.56 1.321-.844 1.98-.096.221-.21.436-.302.659-.135.332-.257.668-.386 1.002-.065.169-.129.34-.2.507a1.76 1.76 0 0 0-.161.561c-.002.026.001.056-.01.077-.14.244-.134.524-.214.784-.153.498-.293.997-.429 1.5-.088.327-.159.657-.237.985-.017.07-.025.14-.045.21-.022.073-.04.151-.079.216a.825.825 0 0 0-.114.37 5.1 5.1 0 0 1-.187 1.073c-.042.157-.052.32-.082.479-.013.07-.035.136-.057.204-.035.111-.078.219-.109.33-.063.245-.12.49-.182.738-.04.167-.082.333-.124.499a.636.636 0 0 1 .049.021c.062-.09.137-.172.184-.268.156-.317.316-.63.543-.908.07-.085.11-.192.156-.293.064-.135.11-.28.186-.41a.842.842 0 0 1 .227-.265.631.631 0 0 0 .213-.296c.16-.37.314-.745.491-1.107.082-.168.216-.313.318-.47.042-.064.065-.137.096-.207.045-.108.078-.22.135-.32.07-.126.157-.241.237-.36.037-.054.07-.114.12-.156a.382.382 0 0 0 .13-.228c.015-.075.087-.142.145-.203.072-.077.156-.142.236-.212-.007-.211.082-.382.22-.532.01-.01.02-.02.026-.03.24-.487.656-.851.958-1.295.18-.264.405-.484.663-.672.282-.208.552-.433.848-.62a2.64 2.64 0 0 1 .687-.309c.424-.119 1.02.262 1.09.675.028.16.031.325.016.486-.035.357-.092.71-.134 1.064-.069.589-.18 1.17-.338 1.74a.241.241 0 0 0-.011.077c.021.316-.07.618-.12.926-.06.346-.106.694-.158 1.04a6.204 6.204 0 0 0-.03.253c-.024.218-.037.433.008.655.049.233.037.479.045.72.007.2.059.383.15.56l.277.547c.348.125.679.146 1.012.01.172-.07.35-.127.523-.192.137-.05.18-.146.183-.29 0-.271.006-.546.043-.816a7.55 7.55 0 0 1 .18-.893c.074-.296.176-.586.265-.879.052-.174.099-.35.149-.525a9.18 9.18 0 0 1 .652-1.633c.214-.425.507-.81.771-1.209.137-.208.286-.408.433-.608.307-.413 1.141-.729 1.76-.504.31.112.614.226.835.48.252.292.38.637.45 1.006.103.537.072 1.072-.012 1.61-.045.285-.117.56-.237.822-.014.03-.03.06-.034.091-.027.267-.179.47-.346.669a.704.704 0 0 0-.152.29.726.726 0 0 1-.163.263c-.169.2-.348.394-.522.59-.013.015-.028.033-.028.05-.012.173-.135.256-.266.344a.62.62 0 0 0-.179.18c-.07.114-.157.192-.273.202-.145.171-.276.326-.41.479a.313.313 0 0 1-.304.113l-.766.679c.17.144.331.286.499.424.033.028.083.04.127.049.145.023.29.049.436.057.117.008.238-.005.355-.013.105-.007.21-.021.316-.031.139-.013.278-.018.416-.037.178-.026.355-.06.53-.095a.465.465 0 0 0 .151-.047c.211-.133.445-.207.681-.276.243-.072.475-.153.686-.308.222-.163.49-.27.712-.434.4-.295.783-.61 1.17-.92.077-.063.152-.131.209-.21.13-.181.3-.315.496-.417a.946.946 0 0 0 .509-.708c.037-.205.079-.408.182-.595a.188.188 0 0 0 .019-.112c-.052-.265.01-.518.082-.768l.025-.094c.047-.192.021-.274-.148-.384a.98.98 0 0 1-.309-.327c-.114-.192-.06-.358.152-.444.129-.052.263-.101.4-.119.156-.02.231-.094.283-.233.12-.323.212-.653.306-.985.129-.456.326-.892.5-1.334.095-.243.199-.482.299-.722.005-.012.017-.025.015-.036-.015-.27.154-.478.25-.711.137-.338.254-.683.393-1.022.398-.964.873-1.896 1.344-2.83.082-.16.205-.302.308-.454.034-.049.069-.096.097-.146.054-.098.101-.194.219-.242.047-.02.077-.085.109-.134.281-.434.554-.877.907-1.262.222-.243.458-.472.702-.695.172-.157.388-.252.616-.314.03-.008.057-.026.083-.04.229-.002.457-.002.684-.002zm-5.088 11.13c.243.065.382.015.485-.151a7.29 7.29 0 0 1 .271-.41c.226-.312.499-.594.646-.955.002-.006.007-.011.01-.016l.741-1.132c.057-.087.109-.176.167-.26.184-.269.373-.536.557-.806.022-.03.025-.073.042-.109.023-.045.045-.092.079-.132.143-.167.306-.322.358-.548a.254.254 0 0 1 .058-.1c.224-.279.385-.593.53-.915a3.86 3.86 0 0 1 .544-.907.348.348 0 0 0 .069-.157.66.66 0 0 1 .179-.362c.061-.069.125-.134.172-.184.011-.135-.009-.264.038-.361.047-.095.162-.158.254-.243.004-.43.021-.49.184-.627.039-.214.064-.414.114-.607.111-.421.146-.355-.145-.768-.015-.021-.029-.044-.04-.062-.087.017-.153.028-.218.04-.304.061-.542.2-.681.487-.06.126-.169.231-.259.343-.104.127-.219.246-.319.375a8 8 0 0 0-.347.476c-.065.096-.107.207-.167.306-.053.088-.102.185-.179.252a.578.578 0 0 0-.189.29c-.068.252-.189.483-.313.714-.138.258-.247.532-.369.798-.022.048-.042.096-.066.142-.25.53-.516 1.056-.751 1.594a37.53 37.53 0 0 0-.725 1.815c-.186.501-.342 1.012-.512 1.518-.067.22-.141.434-.218.662zm-7.669-.642c-.226.281-.47.535-.652.826-.236.376-.437.773-.626 1.174-.189.4-.343.817-.51 1.227a.321.321 0 0 0-.022.131c.009.175-.048.332-.107.492-.073.201-.139.405-.204.61-.013.044-.008.093-.011.138.097-.06.157-.137.224-.207.09-.094.169-.214.279-.273.149-.078.248-.19.35-.31.093-.111.195-.215.284-.328.094-.117.182-.24.264-.364.097-.146.18-.304.28-.449.157-.228.304-.46.383-.724.14-.476.22-.961.232-1.457a.752.752 0 0 0-.164-.486zM.12 18.622c.024-.066.047-.132.072-.196.037-.09.077-.177.114-.266.032-.077.07-.153.095-.233.082-.26.183-.51.315-.753.165-.308.28-.646.383-.98.182-.593.458-1.148.72-1.709.09-.189.201-.366.206-.584a.392.392 0 0 1 .074-.177 4.8 4.8 0 0 0 .509-1.183c.008-.03.015-.066.035-.09.21-.235.282-.541.436-.808.05-.088.067-.195.092-.296.027-.102.052-.198.156-.26.04-.024.068-.076.085-.122a7.68 7.68 0 0 1 .626-1.345c.043-.072.058-.158.09-.236.09-.231.167-.469.405-.608.04-.025.062-.082.085-.127a9.595 9.595 0 0 1 1.01-1.52c.072-.09.166-.17.263-.235a.622.622 0 0 0 .237-.282c.042-.096.08-.192.123-.288a.712.712 0 0 1 .398-.39c.051-.021.092-.069.138-.104.12-.095.226-.209.358-.277.204-.107.422-.197.643-.27a.724.724 0 0 1 .473-.016.275.275 0 0 0 .154.003c.54-.138 1.049.41 1.059.799.001.096.037.19.052.286.01.064.036.135.018.19a.53.53 0 0 0 .023.36.35.35 0 0 1-.013.302.18.18 0 0 0-.027.09c.005.246.014.493.02.738.009.33.014.66.02 1.025.057-.112.1-.202.146-.291.117-.226.24-.447.353-.677.063-.128.122-.262.155-.398a.694.694 0 0 1 .158-.31c.102-.111.197-.229.299-.34.115-.128.244-.246.222-.437l.181-.104-.02-.013c.092-.132.17-.278.281-.394.16-.169.284-.359.401-.556.074-.123.161-.239.241-.358.025-.037.054-.075.067-.115.092-.283.26-.522.432-.763.503-.703 1.114-1.313 1.71-1.937.12-.127.252-.235.407-.31.16-.078.327-.15.492-.219a.462.462 0 0 1 .174-.042c.251.001.504-.005.753.02.217.024.37.168.428.367.062.203.112.418.12.628.014.356-.011.714-.016 1.072-.002.102.008.206.016.309.014.162.022.322-.043.48a.977.977 0 0 0-.06.263c-.022.187-.035.376-.05.563-.004.045-.012.094.001.135.075.205.049.411.025.618-.058.55-.145 1.095-.276 1.633-.04.168-.055.351-.027.52.047.29.022.572-.02.855-.058.411-.133.821-.199 1.231-.02.128-.03.259-.041.387-.037.413-.047.831-.11 1.241-.086.545-.151 1.095-.32 1.625a2.023 2.023 0 0 0-.069.363c-.04.29-.075.58-.11.87-.009.065-.025.132-.015.194.057.322-.015.634-.06.95-.037.26-.057.517.053.766.045.102.018.205-.012.306-.03.099-.07.195-.108.304l.07.11c.124.196.119.392-.035.562a4.84 4.84 0 0 1-.559.528c-.19.152-.438.126-.624-.042-.388-.353-.604-.786-.625-1.308-.015-.353.036-.7.09-1.047.02-.129.04-.259.035-.387-.03-.682.085-1.347.21-2.013.09-.484.145-.977.228-1.464.047-.281.112-.56.178-.837.07-.3.11-.596.077-.906-.024-.217.023-.44.043-.66.017-.186.038-.373.057-.56.002-.02-.002-.04.002-.059.048-.234.077-.468.021-.71a.312.312 0 0 1 .035-.207c.074-.134.066-.275.087-.415.035-.223.086-.444.127-.667.009-.044.009-.09.01-.133.004-.059-.011-.12.009-.173a.688.688 0 0 0 .035-.323.24.24 0 0 1 .047-.165.406.406 0 0 0 .08-.294 2.75 2.75 0 0 1 .075-.792c.027-.12.029-.246.046-.368.026-.192.046-.385.086-.576.042-.197.012-.387-.033-.595-.04.024-.079.042-.109.07-.229.21-.451.423-.634.676-.152.214-.336.405-.495.614-.093.125-.175.26-.247.398-.097.186-.18.378-.268.566a.34.34 0 0 1-.192.187.5.5 0 0 0-.27.275c-.21.444-.488.85-.77 1.251a1.362 1.362 0 0 0-.183.343c-.053.152-.139.295-.22.435-.074.123-.161.239-.247.356-.32.442-.595.906-.766 1.426-.038.116-.147.209-.255.296.006.057.018.113.02.17.001.03 0 .078-.019.092-.14.104-.139.29-.25.412a.38.38 0 0 0-.074.176c-.03.135-.09.253-.16.374-.068.115-.096.254-.145.38-.03.078-.067.152-.097.23-.098.24-.21.476-.287.725-.047.155-.11.274-.258.347a.484.484 0 0 0-.13.09c-.128.13-.287.142-.444.095a2.415 2.415 0 0 1-.497-.195c-.182-.101-.274-.262-.296-.48a2.83 2.83 0 0 1 .009-.519c.027-.31.027-.623.038-.935.002-.052-.001-.11.022-.153.085-.16.082-.327.057-.496-.049-.32.047-.633.057-.95.006-.215.011-.428.008-.643a.778.778 0 0 1 .072-.377.423.423 0 0 0 .037-.182c.001-.43 0-.857-.004-1.287-.001-.11 0-.223-.026-.328-.034-.135-.034-.256.05-.368l-.069-.234c-.098.09-.17.185-.267.245-.295.186-.495.446-.67.734-.09.151-.215.283-.31.43a2.478 2.478 0 0 0-.203.375.704.704 0 0 1-.351.384.458.458 0 0 0-.244.268c-.056.147-.1.296-.156.443a5.9 5.9 0 0 1-.192.445c-.146.3-.295.598-.445.892-.065.127-.142.249-.21.374a31.038 31.038 0 0 0-1.411 2.993c-.079.197-.21.376-.31.565-.05.095-.103.196-.127.3-.085.392-.217.76-.453 1.095-.25.358-.373.774-.513 1.181-.107.307-.21.615-.32.92a.96.96 0 0 1-.129.242.41.41 0 0 1-.158.141 4.694 4.694 0 0 1-.53.174.433.433 0 0 1-.504-.192.456.456 0 0 0-.246-.18c.013-.014.013-.027.013-.04zm61.528-.773c.057-.133.178-.187.313-.24.22-.085.433-.196.644-.305.157-.081.315-.115.475-.024a.371.371 0 0 1 .188.401c-.039.254-.118.496-.338.664-.238.179-.475.36-.72.53-.113.08-.24.137-.363.205a.068.068 0 0 1-.038.012c-.184-.033-.331.08-.495.122a.803.803 0 0 1-.335.018 5.491 5.491 0 0 1-.62-.157c-.388-.115-.661-.385-.905-.681-.142-.172-.276-.35-.41-.529a.51.51 0 0 1-.087-.172c-.117-.501-.22-1.004-.217-1.521.001-.319.05-.449.23-.665.04-.21.084-.386.102-.565.01-.096-.025-.197-.041-.304-.268.347-.472.719-.678 1.09-.284.51-.647.97-1.02 1.42-.072.088-.66.512-.763.56-.018.008-.037.017-.055.022-.828.247-1.684.225-2.379-.459-.041-.042-.081-.087-.128-.123-.3-.233-.435-.552-.502-.906-.022-.114-.055-.226-.094-.387-.053.081-.093.122-.108.17a1.538 1.538 0 0 1-.385.588c-.013.014-.034.026-.042.042-.13.293-.427.452-.609.706-.217.306-.547.493-.846.71a.26.26 0 0 1-.206.03c-.097-.03-.164-.011-.24.042-.222.155-.452.22-.708.069-.035-.021-.09-.008-.134-.021-.089-.025-.193-.035-.263-.085a6.826 6.826 0 0 1-.65-.519c-.313-.293-.45-.681-.485-1.088-.036-.407-.009-.817-.012-1.227-.002-.164.005-.323.09-.473a.162.162 0 0 0 .029-.093c-.024-.247.09-.468.143-.7.02-.084.069-.162.117-.272-.055-.095-.036-.21.052-.326.1-.13.112-.29.13-.444.018-.141.026-.284.051-.426.017-.088.06-.17.092-.254.057-.151.14-.297.167-.454.032-.183.08-.353.18-.51.014-.02.02-.046.04-.091-.07 0-.118-.005-.166.001-.224.03-.45.057-.673.093-.076.013-.15.057-.227.068-.25.04-.5.072-.736.104-.13.04-.25.074-.37.11-.159.046-.318.099-.48.14-.239.06-.485.095-.72.168-.248.077-.484.183-.725.28-.122.05-.174.151-.197.275-.087.454-.178.906-.263 1.36-.035.184-.012.377-.109.55-.003.005-.003.013-.001.02.062.266-.057.512-.084.769-.055.528-.2 1.046-.19 1.584.005.276-.054.556-.098.831-.128.815-.259 1.63-.344 2.451a1.71 1.71 0 0 1-.034.192c-.128.578-.155 1.17-.25 1.752-.047.295-.14.581-.21.872a6.529 6.529 0 0 0-.082.399c-.038.21-.075.421-.11.633-.013.082-.022.167-.032.252-.005.039.002.088-.02.114-.145.185-.093.41-.139.614-.063.285-.13.571-.219.85-.073.23-.264.307-.493.222-.234.19-.467.114-.69-.032a.881.881 0 0 1-.335-.405.476.476 0 0 1 .011-.415c.024-.046.05-.093.06-.142.04-.195.074-.392.112-.608a.984.984 0 0 0-.046-.047c.082-.182.157-.377.256-.56.063-.115.125-.227.142-.36.02-.147.088-.302.062-.438-.054-.277.018-.544.011-.815-.003-.122.069-.246.104-.37.02-.073.042-.146.049-.22.008-.084-.005-.17.001-.253.014-.187.025-.376.052-.563.022-.146.065-.29.095-.436.056-.26.116-.52.16-.784.04-.25.068-.502.09-.754.01-.122-.03-.25-.01-.368a3.08 3.08 0 0 1 .152-.542c.052-.14.134-.267.07-.428-.018-.045.003-.118.03-.165.094-.157.136-.327.147-.503.022-.31.086-.617.027-.932-.038-.205-.037-.418.119-.594-.082-.221-.052-.437.005-.655.09-.347.15-.698.162-1.058.005-.141.045-.281.07-.432-.199.029-.398.09-.583.192-.17.09-.331.195-.504.274-.159.074-.26.16-.246.352.014.18-.075.307-.266.364a.65.65 0 0 0-.202.117c-.156.12-.276.134-.435.017a4.165 4.165 0 0 1-.428-.35.408.408 0 0 1-.126-.428.597.597 0 0 0 .005-.211c-.033-.342.084-.623.338-.86.331-.305.708-.531 1.158-.627.242-.052.473-.13.704-.22.314-.122.642-.218.992-.335l.058-.356c.054-.295.106-.589.163-.882a.386.386 0 0 1 .062-.16c.11-.139.153-.302.19-.468.03-.14.066-.278.104-.437-.09-.12-.094-.249.022-.389.048-.058.05-.16.063-.24.035-.222.106-.424.238-.614.075-.107.104-.25.13-.382.037-.184.042-.376.084-.558.028-.124.098-.238.15-.356.044-.101.09-.2.13-.303.06-.156.113-.315.183-.514-.073-.12-.011-.263.08-.41.062-.097.107-.208.144-.319.09-.26.196-.51.36-.736a.514.514 0 0 0 .092-.25.721.721 0 0 1 .115-.325.95.95 0 0 0 .181-.488c.01-.1.04-.19.115-.262.191-.18.312-.403.408-.642.13-.319.34-.571.645-.748a.479.479 0 0 1 .322-.067c.116.016.24-.005.357-.018.112-.013.222-.044.334-.057a.594.594 0 0 1 .435.11c.069.051.147.09.226.128.316.15.572.369.744.662.24.405.457.821.676 1.238.043.084.055.187.074.281.031.17.061.343.086.517.015.108.014.218.027.327a.47.47 0 0 0 .052.18.532.532 0 0 1 .067.359c-.04.27-.085.54-.136.808a.507.507 0 0 1-.423.389c-.11.013-.19-.046-.267-.112a1.306 1.306 0 0 1-.44-.706c-.069-.318-.116-.64-.16-.962-.063-.468-.217-.909-.406-1.34a.588.588 0 0 0-.12-.177c-.117-.12-.242-.235-.373-.358a4.441 4.441 0 0 0-.666.961c-.264.54-.538 1.075-.744 1.64-.042.115-.065.237-.105.354-.046.135-.086.274-.151.399-.15.286-.24.59-.324.898-.042.151-.09.3-.138.449-.075.24-.148.484-.232.722-.042.12-.109.234-.16.353-.042.094-.091.189-.114.288-.047.21-.072.423-.12.633a8.614 8.614 0 0 1-.19.675c-.058.187-.109.372-.092.593.094-.013.177-.018.258-.035.913-.192 1.826-.387 2.741-.578.11-.023.224-.023.336-.037.066-.008.13-.025.194-.04.161-.042.322-.079.48-.125.153-.043.312-.078.452-.148.197-.097.388-.128.596-.042.128.054.267.085.393.143.297.14.426.378.343.69-.113.42-.253.834-.387 1.25a2.13 2.13 0 0 0-.084.396 1.975 1.975 0 0 1-.142.565c-.192.426-.296.875-.406 1.322a11.62 11.62 0 0 0-.308 1.706 5.757 5.757 0 0 0-.012.701.485.485 0 0 0 .156.368c.075-.05.162-.09.224-.151.263-.259.539-.508.67-.864.024-.06.095-.106.143-.156.059-.06.13-.11.174-.18.09-.142.174-.287.293-.414.105-.114.174-.26.252-.395.047-.078.074-.17.124-.244.338-.512.552-1.08.793-1.636.119-.277.267-.537.408-.802.172-.322.301-.666.448-1l.032-.07c.164-.406.554-.619.992-.502.214.057.411.18.607.288.112.062.15.184.14.306a3.308 3.308 0 0 1-.06.463c-.179.82-.364 1.639-.548 2.457-.01.044-.014.092-.035.131-.124.228-.126.47-.123.72.002.15-.02.297-.03.447-.013.201 0 .402.05.6.049.195.087.394.136.589.017.067.05.128.077.192a.52.52 0 0 0 .326-.119 4.28 4.28 0 0 0 .907-.984c.266-.39.52-.787.774-1.186a1.27 1.27 0 0 0 .117-.267 1.86 1.86 0 0 1 .293-.528c.077-.096.129-.212.187-.32.18-.342.353-.686.532-1.027a.249.249 0 0 1 .074-.091c.155-.103.209-.26.26-.425.068-.216.143-.432.228-.644a1.42 1.42 0 0 1 .346-.498.58.58 0 0 0 .123-.174c.053-.125.088-.258.142-.384a3.96 3.96 0 0 1 .207-.418.64.64 0 0 0 .109-.288.688.688 0 0 1 .16-.413.543.543 0 0 0 .087-.15c.171-.452.387-.881.614-1.309.174-.327.281-.686.418-1.031.022-.054.034-.117.069-.161.224-.27.321-.595.435-.914.077-.222.162-.441.267-.65.076-.15.181-.29.297-.416.113-.123.209-.253.264-.408.132-.368.264-.735.393-1.104.032-.093.055-.188.092-.279.079-.195.219-.3.445-.296a1.4 1.4 0 0 0 .296-.034.38.38 0 0 1 .336.078.783.783 0 0 0 .19.104c.198.085.3.231.302.441 0 .203-.027.399-.15.576-.073.106-.12.233-.163.355-.378 1.062-.82 2.1-1.286 3.128-.477 1.054-.833 2.15-1.133 3.264-.212.792-.416 1.586-.62 2.38-.044.17-.065.345-.109.516-.043.169-.102.335-.155.502-.024.075-.052.148-.076.222-.067.217-.122.439-.199.653-.1.28-.152.565-.167.858-.013.268-.055.53-.142.784a1.997 1.997 0 0 0-.089.904c.015.122.01.246.014.37.008.33.155.585.436.767.1.065.197.073.32.028.194-.064.38-.093.588-.145z"/><path fill="#000" d="M30.815 17.532c.328-.026.58-.176.818-.36a2.08 2.08 0 0 0 .002-.683c-.08-.421.01-.83.14-1.226.095-.29.22-.571.34-.854a.603.603 0 0 1 .155-.223.54.54 0 0 0 .167-.278c.034-.119.076-.236.116-.353.017-.05.025-.106.058-.145.174-.205.235-.457.343-.691.106-.23.268-.433.412-.646.307-.457.61-.92.995-1.32a4.68 4.68 0 0 1 .523-.45c.148-.112.318-.19.51-.21.073-.008.143-.034.213-.057a1.75 1.75 0 0 1 1.025-.047c.412.104.798.265 1.108.56.095.09.167.201.25.304l.161.195c.079-.267.248-.433.398-.611.14-.168.18-.375.228-.578.032-.133.078-.257.142-.38a2.29 2.29 0 0 0 .17-.477c.077-.3.176-.583.387-.825a1.31 1.31 0 0 0 .196-.338.33.33 0 0 0 .013-.205c-.037-.137-.003-.252.05-.376.082-.184.167-.37.216-.563.105-.418.274-.813.426-1.215.067-.176.116-.358.173-.537.056-.18.115-.36.17-.54.119-.385.246-.77.352-1.158.076-.281.127-.57.183-.857.039-.192.146-.317.342-.364.239-.059.475-.06.704.048.072.035.15.052.227.077a.519.519 0 0 1 .389.491.978.978 0 0 1-.03.327c-.293 1.033-.563 2.07-.907 3.09-.238.703-.437 1.419-.647 2.13-.036.117-.046.242-.067.363-.017.096-.017.196-.049.288-.154.445-.21.91-.296 1.37-.094.511-.206 1.02-.311 1.53-.01.05-.029.102-.027.153.015.506-.122.99-.21 1.483-.104.57-.183 1.142-.272 1.713l-.209 1.368c-.013.09-.026.18-.026.272 0 .144-.026.283-.082.418-.076.174-.037.36-.035.54.001.063.014.146-.019.187-.142.17-.048.328.057.436.129.131.16.28.187.439a.33.33 0 0 1-.031.187c-.156.3-.39.524-.711.659a.49.49 0 0 1-.527-.065c-.067-.052-.14-.1-.218-.139a.701.701 0 0 1-.415-.663c.004-.558.017-1.118.05-1.676.026-.42.084-.84.135-1.26.028-.24.07-.475.102-.714.011-.083.015-.166.023-.274l-.167.12c0 .19-.099.333-.204.479a2.216 2.216 0 0 0-.268.476 1.31 1.31 0 0 1-.375.544.422.422 0 0 0-.16.259.543.543 0 0 1-.132.234c-.096.109-.211.2-.308.307-.087.098-.16.208-.243.308-.043.053-.092.122-.152.14a.599.599 0 0 0-.313.232 1.503 1.503 0 0 1-.587.459c-.18.084-.348.195-.528.278-.549.25-1.128.29-1.701.135a2.735 2.735 0 0 1-1.038-.555c-.18.091-.367.19-.558.283-.462.225-.922.233-1.385 0-.13-.065-.268-.117-.403-.172a.543.543 0 0 1-.29-.256c-.107-.201-.232-.395-.34-.596a1.574 1.574 0 0 1-.173-.771c.002-.415-.035-.832-.043-1.246-.006-.246 0-.493.018-.739.045-.576.109-1.152.149-1.728.037-.518.07-1.037.073-1.556.002-.473-.038-.948-.06-1.422l-.013-.27c-.14.103-.28.199-.41.306a.978.978 0 0 0-.167.192.727.727 0 0 1-.286.265.355.355 0 0 0-.183.197.991.991 0 0 1-.115.205c-.197.27-.398.538-.599.805-.058.078-.129.15-.219.255-.092.176-.204.396-.323.612-.17.31-.356.61-.515.924-.184.366-.341.745-.517 1.116-.172.366-.353.729-.527 1.093-.38.795-.764 1.587-1.136 2.386-.212.459-.652.6-1.045.565-.463-.043-.87-.567-.796-1.01l.018-.1c-.021.007-.035.007-.041.013-.306.39-.743.631-1.134.924-.052.04-.134.043-.205.052-.098.013-.202-.003-.296.025-.453.13-.871.045-1.27-.178a2.456 2.456 0 0 1-.837-.772c-.04-.06-.069-.134-.122-.178-.23-.185-.29-.442-.341-.706-.082-.422-.153-.844-.136-1.277a.804.804 0 0 1 .184-.523c.055-.065.084-.13.074-.213a.319.319 0 0 1 .001-.098 1.84 1.84 0 0 0 .034-.67c-.02-.137.043-.265.122-.384.057-.086.102-.179.149-.262-.16-.216-.162-.252-.024-.467.082-.127.166-.25.15-.413-.006-.042.031-.1.066-.135.11-.12.164-.265.213-.415.068-.21.152-.415.217-.626a1.23 1.23 0 0 0 .05-.325 1.13 1.13 0 0 1 .1-.474c.034-.07.044-.15.067-.223.022-.066.034-.146.079-.196a.692.692 0 0 0 .14-.337c.06-.286.131-.57.188-.857.038-.197.16-.332.353-.352.331-.034.669-.042.982.106a.556.556 0 0 1 .287.722c-.03.08-.068.155-.103.233-.116.255-.223.51-.283.787-.047.22-.157.426-.24.64-.024.06-.063.115-.083.177-.162.514-.323 1.03-.478 1.547a37.9 37.9 0 0 0-.323 1.125 3.71 3.71 0 0 0-.105.573c-.034.31-.06.62-.16.92-.08.241-.131.487-.091.747.025.166.006.337.013.506.01.329.157.586.435.771.114.077.227.098.351.01.064-.046.142-.073.213-.11.115-.063.229-.118.294-.248.037-.075.129-.132.21-.174a1.5 1.5 0 0 0 .553-.525l.179-.283c.035-.056.063-.118.107-.165.209-.23.386-.476.488-.772.037-.104.13-.197.214-.279.19-.183.316-.401.397-.645.052-.155.093-.313.159-.462.053-.124.135-.236.204-.355.041-.071.09-.141.118-.22.039-.104.06-.213.087-.32.035-.14.07-.27.213-.358.057-.035.082-.13.107-.201.073-.209.144-.418.21-.628.186-.59.365-1.181.552-1.77.096-.298.208-.589.307-.885.063-.19.204-.286.396-.312.192-.025.386-.031.579-.05.28-.03.612.273.62.573.007.202-.05.386-.15.558a1.074 1.074 0 0 0-.16.458c-.026.294-.126.569-.24.842-.07.166-.132.337-.177.514.197-.177.366-.377.44-.623.09-.303.279-.527.5-.738.162-.157.304-.324.425-.516.061-.1.199-.15.276-.244.072-.088.088-.223.167-.301.164-.161.35-.303.533-.44.24-.18.53-.243.818-.303.19-.04.382-.064.572-.101a.81.81 0 0 1 .542.088c.084.042.16.094.241.141a.56.56 0 0 1 .278.387c.052.267.132.534.145.804.012.24.092.47.086.71l-.029.72a.257.257 0 0 0 .007.094c.077.221.064.449.052.677-.022.44-.04.881-.06 1.324a.653.653 0 0 1-.015.133c-.09.337-.096.682-.12 1.025-.038.57-.081 1.14-.118 1.711-.005.082.015.166.023.247.012.11.047.223.027.327-.042.23.008.438.102.644l.099.23zm2.576-1.655c.073-.061.115-.09.15-.128.15-.158.298-.317.444-.478a1.69 1.69 0 0 1 .413-.337c.107-.062.21-.141.287-.236.216-.257.442-.5.733-.683a1.05 1.05 0 0 0 .24-.203c.312-.355.601-.729.953-1.053.067-.062.122-.136.175-.211a.323.323 0 0 0 .064-.14 1.59 1.59 0 0 0-.186-.98c-.11-.201-.311-.234-.51-.11a2.287 2.287 0 0 0-.597.513c-.184.23-.388.447-.556.688-.219.317-.414.65-.61.982a11.44 11.44 0 0 0-.376.687c-.099.191-.174.393-.273.583-.149.287-.232.594-.323.9-.016.057-.016.112-.028.207zm3.497-1.548a1.347 1.347 0 0 0-.587.5.969.969 0 0 1-.492.383.75.75 0 0 0-.33.243 3.728 3.728 0 0 1-.938.813.349.349 0 0 0-.127.117c-.067.135-.179.223-.296.31a4.585 4.585 0 0 0-.762.733c.09.166.175.236.334.255.223.03.44.028.627-.12.161-.127.335-.238.487-.373.182-.162.343-.346.519-.515.078-.077.175-.137.257-.209a.71.71 0 0 0 .144-.156c.162-.268.325-.538.475-.811.084-.152.18-.272.372-.29.075-.31.1-.626.317-.88zM21.207 4.834l.398.036c.23.018.405.128.53.31.097.14.183.289.276.43.106.16.1.317.014.48-.077.143-.154.286-.233.428a.547.547 0 0 1-.562.299c-.649-.059-1.089-.438-1.253-1.015-.068-.242-.035-.465.174-.64a.367.367 0 0 0 .054-.058c.154-.187.33-.328.602-.27z"/></svg>