<svg xmlns:xlink="http://www.w3.org/1999/xlink" xmlns="http://www.w3.org/2000/svg" width="46" height="46" fill="none"><g clip-path="url(#a)"><path fill="#FFD02F" d="M42.748.272H3.252a3.29 3.29 0 0 0-2.3.932A3.147 3.147 0 0 0 0 3.454v38.637c0 .844.343 1.653.953 2.25.61.596 1.437.931 2.3.931h39.495a3.29 3.29 0 0 0 2.3-.931c.61-.597.952-1.406.952-2.25V3.454c0-.844-.343-1.653-.953-2.25a3.29 3.29 0 0 0-2.3-.932z"/><path fill="#050038" fill-rule="evenodd" d="M31.55 6.181h-4.938l4.384 6.648-9.268-6.648H16.79l4.383 8.71-9.267-8.71H6.97l4.31 11.242-4.31 21.94h4.937l9.267-23.525-4.383 23.525h4.937l9.267-25.587-4.383 25.587h4.938l9.34-28.105-9.34-5.076z" clip-rule="evenodd"/></g><defs><clipPath id="a"><path fill="#fff" d="M0 .272h46v45H0z"/></clipPath></defs></svg>