<svg xmlns:xlink="http://www.w3.org/1999/xlink" xmlns="http://www.w3.org/2000/svg" width="74" height="26" fill="none"><path fill="#000" fill-rule="evenodd" d="M64.942 7.448c5.446 0 9.058 3.688 9.058 9.26C74 22.272 70.388 26 64.942 26c-5.655 0-9.442-3.72-9.442-9.292.008-5.572 3.787-9.26 9.442-9.26zm-29.076.374v17.796l-4.07-.812V8.602l4.07-.78zm16.306-.414v4.175l-2.344.422c-2.018.374-3.311 1.397-3.311 3.655v9.95l-4.07-.812V15.05c0-4.833 2.91-6.279 7.381-7.278l2.344-.365zM8.9 7.448c1.601 0 3.561.87 4.662 2.429 1.11-1.422 2.961-2.356 5.238-2.38 2.861-.04 6.423 1.722 6.423 6.985v11.144l-4.07-.812V14.482c0-1.762-1.31-3.021-3.245-3.021s-3.245 1.259-3.245 3.021v11.144l-4.07-.812V14.482c0-1.762-1.31-3.021-3.245-3.021-1.968 0-3.278 1.259-3.278 3.021v11.144L0 24.814V8.602l4.07-.78v1.836c1.135-1.365 2.861-2.21 4.83-2.21zm56.042 3.753c-3.161 0-5.272 2.185-5.272 5.499 0 3.314 2.119 5.531 5.272 5.531 2.953 0 4.896-2.217 4.896-5.531 0-3.306-1.944-5.5-4.896-5.5zM33.914 0c1.485 0 2.46 1.007 2.46 2.518 0 1.51-.984 2.526-2.46 2.526-1.535 0-2.57-1.015-2.57-2.526C31.355 1.008 32.38 0 33.915 0z" clip-rule="evenodd"/></svg>