<svg xmlns:xlink="http://www.w3.org/1999/xlink" xmlns="http://www.w3.org/2000/svg" width="97" height="30" fill="none"><path fill="#000" d="M.141 6.194h3.372v7.49h7.11v-7.49H14V24.58h-3.376v-7.647h-7.11v7.647H.14V6.194zm24.54 12.398a2.797 2.797 0 0 1-2.794 2.791 2.796 2.796 0 0 1-2.792-2.791v-7.916h-3.198v7.916a5.996 5.996 0 0 0 5.99 5.989 5.996 5.996 0 0 0 5.99-5.99v-7.915H24.68v7.915zm12.121-7.824c-1.586 0-2.693.46-3.762 1.51V6.194h-3.207V17.47c0 4.22 3.051 7.11 6.48 7.11 3.81 0 7.15-2.941 7.15-6.905 0-3.914-3.08-6.907-6.66-6.907zm.08 10.845c-2.174 0-3.836-1.815-3.836-3.939 0-2.123 1.662-3.939 3.836-3.939 1.842 0 3.505 1.816 3.505 3.94 0 2.123-1.663 3.938-3.505 3.938zm11.969-10.037c0-1.612 1.074-2.123 2.25-2.123.947 0 2.2.716 3.018 1.586l2.097-2.455c-1.048-1.407-3.17-2.38-4.91-2.38-3.48 0-5.986 2.022-5.986 5.373 0 6.215 7.648 4.245 7.648 7.725 0 1.073-1.048 2.02-2.25 2.02-1.893 0-2.507-.92-3.377-1.893l-2.328 2.404c1.485 1.816 3.326 2.737 5.526 2.737 3.3 0 5.96-2.046 5.96-5.244 0-6.906-7.648-4.757-7.648-7.75zm16.092-.988c-3.428 0-6.48 2.889-6.48 7.11v11.305h3.208V22.89c1.07 1.049 2.175 1.51 3.762 1.51 3.582 0 6.661-2.992 6.661-6.906 0-3.965-3.34-6.906-7.151-6.906zm.57 10.845c-2.173 0-3.836-1.818-3.836-3.94 0-2.123 1.663-3.938 3.836-3.938 1.842 0 3.505 1.815 3.505 3.939 0 2.121-1.664 3.94-3.505 3.94zm30.192.18c-1.892 0-2.429-.818-2.429-2.072v-5.55h2.942v-2.813h-2.942v-3.71L90.03 8.926v11.306c0 2.89 1.994 4.349 4.73 4.349.41 0 .973-.026 1.28-.102l.793-2.916c-.358.024-.768.05-1.127.05z"/><path fill="#000" d="M87.246 14.154c-.615-1.057-1.48-1.906-2.562-2.544a6.883 6.883 0 0 0-2.59-.898V7.351a2.482 2.482 0 0 0 1.53-2.324 2.544 2.544 0 0 0-2.54-2.555 2.561 2.561 0 0 0-2.563 2.555c0 1.036.552 1.923 1.496 2.324v3.363a7.39 7.39 0 0 0-2.254.707l-9.055-6.877a2.78 2.78 0 0 0 .117-.747 2.829 2.829 0 1 0-5.658 0 2.83 2.83 0 0 0 2.83 2.83c.534 0 1.027-.156 1.453-.412l.591.448 8.128 5.856c-.43.395-.83.844-1.15 1.347-.648 1.027-1.045 2.156-1.045 3.388v.257c0 .865.164 1.682.444 2.449.246.67.607 1.278 1.053 1.829l-2.697 2.704a2.172 2.172 0 0 0-2.298.504 2.176 2.176 0 0 0-.64 1.546c0 .584.228 1.134.642 1.547a2.17 2.17 0 0 0 1.546.64 2.176 2.176 0 0 0 1.547-.64 2.19 2.19 0 0 0 .54-2.203l2.787-2.788c.383.264.796.486 1.24.678a7.24 7.24 0 0 0 2.898.609h.194a6.837 6.837 0 0 0 3.309-.836 6.85 6.85 0 0 0 2.593-2.442c.65-1.039 1.007-2.187 1.007-3.45v-.063c-.001-1.244-.29-2.39-.893-3.44zm-3.407 5.85c-.757.84-1.627 1.36-2.61 1.36h-.162c-.562 0-1.111-.156-1.649-.438-.606-.311-1.067-.754-1.444-1.316-.39-.551-.602-1.153-.602-1.79v-.195c0-.627.12-1.221.424-1.783a3.86 3.86 0 0 1 1.345-1.471 3.291 3.291 0 0 1 1.862-.562h.064c.617 0 1.2.121 1.752.403.561.3 1.02.712 1.375 1.252.346.54.551 1.124.617 1.759.01.132.016.267.016.396 0 .862-.329 1.66-.988 2.385z"/></svg>