<svg xmlns:xlink="http://www.w3.org/1999/xlink" xmlns="http://www.w3.org/2000/svg" width="89" height="17" fill="none"><path fill="#000" fill-rule="evenodd" d="M58.719 10.89c-.3-.196-.624-.34-.99-.34h-5.398v.886h7.13c.35 0 .675-.144.975-.325v5.398H42.393c.312-.26.598-.586.598-1.002V1.783c0-.429-.286-.754-.598-1.015h18.042v4.879c-.299-.195-.624-.339-.975-.339h-7.13v1.028h5.399c.365 0 .69-.13.99-.338v4.891zm17.235 2.47H71.96l-.794 2.355a.851.851 0 0 0-.039.26c0 .196.065.365.156.534h-9.198c.208-.208.352-.428.456-.703l4.904-13.23c.118-.325.221-.676.221-1.014 0-.286-.103-.547-.22-.794h14.867c-.117.26-.234.52-.234.807 0 .35.104.69.234 1.001l5.412 13.23c.104.287.261.495.495.703H76.734c.078-.195.131-.39.131-.598a.892.892 0 0 0-.053-.325l-.858-2.225zM25.56 10.734v4.76c0 .43.273.742.585 1.015H15.257c.3-.273.586-.586.586-1.014v-13.7c0-.442-.286-.742-.586-1.028h10.889c-.313.274-.586.586-.586 1.028V6.53l3.16-4.735a.935.935 0 0 0 .17-.495c0-.182-.091-.364-.17-.533h10.746a3.096 3.096 0 0 0-1.144 1.028l-3.773 5.477 5.203 8.221c.273.442.65.767 1.119 1.015H28.357c.09-.13.208-.273.208-.429 0-.208-.105-.416-.208-.586l-2.797-4.761zM.233.768H11.38c-.312.274-.585.573-.585 1.015v13.711c0 .429.274.742.585 1.015H.233c.299-.273.572-.586.572-1.015V1.783c0-.442-.273-.741-.572-1.015z" clip-rule="evenodd"/><path fill="#fff" fill-rule="evenodd" d="M72.988 10.186h1.782l-.923-2.51-.86 2.51z" clip-rule="evenodd"/></svg>