<svg xmlns:xlink="http://www.w3.org/1999/xlink" xmlns="http://www.w3.org/2000/svg" width="90" height="26" fill="none"><path fill="#000" d="M12.823 23.515c-1.346.236-2.715.307-4.13.496l-4.32-12.653v13.195c-1.346.142-2.574.331-3.849.52V.9h3.588l4.91 13.716V.9h3.801v22.615zM20.26 9.753c1.464 0 3.706-.071 5.052-.071v3.777c-1.676 0-3.636 0-5.052.07v5.62c2.219-.142 4.438-.331 6.68-.402v3.635l-10.457.826V.9H26.94v3.777h-6.68v5.076zm20.726-5.076h-3.919v17.375c-1.275 0-2.55 0-3.777.047V4.677h-3.918V.9h11.614v3.777zm6.138 4.816h5.17v3.777h-5.17v8.57h-3.707V.9h10.552v3.777h-6.846v4.816zm12.983 9.041c2.148.047 4.32.213 6.42.33v3.73c-3.375-.212-6.75-.424-10.197-.495V.9h3.777v17.634zm9.607 4.32c1.204.07 2.48.142 3.707.284V.9h-3.707v21.954zM89.968.9l-4.792 11.497 4.792 12.676c-1.417-.189-2.833-.449-4.25-.685l-2.714-6.987-2.762 6.42c-1.37-.235-2.69-.306-4.06-.495l4.863-11.071L76.654.9h4.06l2.478 6.35L85.837.9h4.13z"/></svg>