<svg xmlns:xlink="http://www.w3.org/1999/xlink" xmlns="http://www.w3.org/2000/svg" width="46" height="42" fill="none"><g clip-path="url(#a)"><path fill="#123B6D" d="M45.995 21.689a.662.662 0 0 1-.026.189.384.384 0 0 1-.022.087c.004.003 0 .007-.003.01a.324.324 0 0 1-.029.077.762.762 0 0 1-.054.109.906.906 0 0 1-.384.38l-1.679.951-.145.084-1.788 1.008-.412.233-7.788 4.412-.151.087-2.968 1.68-.369.206-.366.207-.184.106a5.415 5.415 0 0 0-.192.105c-.007.003-.01.007-.018.01a1.698 1.698 0 0 1-.423.157h-.004a2.14 2.14 0 0 1-.546.069 2.16 2.16 0 0 1-.979-.225 2.25 2.25 0 0 0-.152-.084c-.018-.01-.036-.022-.058-.032l-2.323-1.318-.314-.177-.225-.127-.047-.026-.17-.098-.025-.014-.076-.044-.055-.032-.058-.033-.072-.04-.087-.047-.043-.026-.011-.007-.116-.065-.101-.058-.03-.015-.13-.072-6.56-3.716-1.382-.783-.413-.233-1.788-1.008-.19-.11-1.631-.924a.922.922 0 0 1-.384-.381.815.815 0 0 1-.054-.113l-.076-.359a.96.96 0 0 1 .48-.834l.012-.011c.007 0 .014-.008.022-.008l1.632-.921.191-.11 7.721-4.371.5-.283 1.921-1.085.13-.076.03-.015.1-.058.117-.065.01-.007.044-.026.087-.047.072-.04.058-.033.054-.029.076-.043.026-.015.17-.098.047-.025.224-.127.315-.181 2.323-1.314c.073-.04.141-.08.21-.116a2.196 2.196 0 0 1 1.95 0c.073.036.142.076.21.116l3.887 2.199 2.418 1.368 7.722 4.372.145.083 1.68.947c.01 0 .017.008.025.008l.007.01a.954.954 0 0 1 .485.835z"/><path fill="#28A8EA" d="M33.686 5.718H23.544v9.433l10.142 9.434h10.141v-9.434L33.686 5.718z"/><path fill="#0364B8" d="M33.686 24.581v9.434H23.544l-.181-.153-.026-.021v-.004l-.032-.03-.065-.053-.123-.106-.011-.007-.16-.138-.003-.004-.04-.032-.018-.015-.018-.018-.214-.181h-.004l-.043-.04-.03-.026-.017-.014-.044-.036-.108-.091-.218-.178-8.787-7.202-.362-.298v-10.22h10.504l.217.203.055.05.159.15.112.1.102.095.17.16.047.043.225.21 9.055 8.422z"/><path fill="#14447D" d="M23.543 24.581H13.401v9.434h10.142V24.58z"/><path fill="#0078D4" d="M43.827 24.581H33.685v9.434h10.142V24.58z"/><path fill="#50D9FF" d="M43.827 5.718H33.685v9.433h10.142V5.718z"/><path fill="#0078D4" d="M23.544 5.718H13.04v9.433h10.504V5.718zm10.142 9.43H23.544v9.433h10.142v-9.433z"/><path fill="#0358A7" d="M14.989.272h26.89a1.946 1.946 0 0 1 1.8 1.205c.098.237.148.491.148.747v3.49H13.04v-3.49A1.954 1.954 0 0 1 14.989.272z"/><path fill="#0A2767" d="m43.827 21.98-14.871 8.084-.07.04a.72.72 0 0 1-.155.073l-.485-.272-.06-.033a.979.979 0 0 1-.086-.047l-.037-.022-2.945-1.64-.24-.136-.198-.11-.435-.244-11.205-6.24v11.704h30.787V21.981z" opacity=".1"/><path fill="#0A2767" d="m43.827 22.344-14.871 8.083-.07.04a.72.72 0 0 1-.155.073l-.485-.273-.06-.032a.979.979 0 0 1-.086-.047l-.037-.022-2.945-1.64-.24-.136-.198-.11-.435-.244-11.205-6.24V33.5h30.787V22.344z" opacity=".1"/><path fill="#0A2767" d="m43.827 22.703-14.871 8.084-.07.04a.7.7 0 0 1-.154.073l-.485-.273-.061-.032a.996.996 0 0 1-.086-.047l-.036-.023-2.945-1.64-.241-.136-.197-.108-.435-.245-11.206-6.24V33.86h30.787V22.703z" opacity=".1"/><path fill="#0A2767" d="m43.827 23.07-14.871 8.084-.07.04a.7.7 0 0 1-.154.073l-.485-.272-.061-.033a.996.996 0 0 1-.086-.047l-.036-.022-2.945-1.64-.241-.136-.197-.11-.435-.244-11.206-6.24v11.704h30.787V23.071z" opacity=".1"/><path fill="#1490DF" d="m45.508 22.492-.02.01-.004.003-15.865 8.623a2.29 2.29 0 0 1-2.377 0l.747 5.377 15.813 4.733c.46.002.911-.137 1.29-.399a2.062 2.062 0 0 0 .906-1.694V21.686a.924.924 0 0 1-.49.806z"/><path fill="#000" d="m30.237 30.808-.59.32a2.263 2.263 0 0 1-2.377 0l.747 5.376 15.813 4.734c.461.002.912-.137 1.291-.399.422-.288.723-.722.848-1.218l-15.732-8.813z" opacity=".05"/><path fill="#000" d="m45.848 39.971-15.987-8.956-.214.115a2.263 2.263 0 0 1-2.377 0l.747 5.377L43.83 41.24c.461.002.912-.138 1.291-.4.317-.218.568-.519.727-.87z" opacity=".05"/><path fill="#000" d="m45.67 40.287-16.184-9.065-.051.026a2.289 2.289 0 0 1-2.165-.116l.747 5.376 15.813 4.734c.461.002.912-.137 1.291-.399.216-.15.402-.338.55-.556z" opacity=".05"/><path fill="#000" d="m45.437 40.57-16.251-9.104-.08-.043-.065-.036a2.29 2.29 0 0 1-1.771-.26l.746 5.377 15.813 4.734c.461.002.912-.137 1.291-.399.114-.08.22-.17.317-.269z" opacity=".05"/><path fill="#28A8EA" d="M45.142 40.822a3.126 3.126 0 0 1-.142.094c-.047.029-.097.054-.148.08-.058.029-.116.054-.174.08-.004 0-.007.003-.01.003a3.05 3.05 0 0 1-.196.066 1.195 1.195 0 0 1-.225.054 1.281 1.281 0 0 1-.174.025c-.078.01-.157.016-.235.015H13.094a2.175 2.175 0 0 1-2.027-1.323 2.183 2.183 0 0 1-.175-.832V21.686l.5.28.007.003c.003.003.003.003.007.003l1.633.911 3.05 1.698 7.454 4.151.218.123.054.03.16.09.112.062.101.054.17.098.047.026.225.123 2.695 1.502c.069.044.141.084.213.12l.899.504.569.32h.003l2.416 1.353.648.363.649.362.271.153.377.21 11.772 6.597z"/><path fill="#000" d="M24.63 10.793v21.632a1.94 1.94 0 0 1-.633 1.437 1.883 1.883 0 0 1-.558.363c-.24.1-.497.153-.757.152H10.867v-1.451h.025v-11.24a.96.96 0 0 1 .482-.835l.01-.011c.008 0 .015-.007.022-.007l1.634-.922V8.616h9.642c.305.002.603.089.862.25a2.31 2.31 0 0 1 1.087 1.927z" opacity=".05"/><path fill="#000" d="M24.359 10.832v21.233c.002.38-.107.753-.312 1.074a1.72 1.72 0 0 1-.304.362c-.06.062-.127.117-.2.164a1.355 1.355 0 0 1-.238.145c-.036.022-.073.036-.109.054a1.915 1.915 0 0 1-.753.153H10.867v-1.089h.025v-11.24a.96.96 0 0 1 .482-.835l.01-.01c.008 0 .015-.008.022-.008l1.634-.922V8.71h9.37c.416.006.817.156 1.134.425a2.232 2.232 0 0 1 .815 1.698z" opacity=".075"/><path fill="#000" d="M24.087 10.865v20.837a1.98 1.98 0 0 1-.543 1.386.687.687 0 0 1-.055.051 1.778 1.778 0 0 1-.532.363c-.004 0-.007.004-.01.004a1.905 1.905 0 0 1-.74.148h-11.34v-.725h.025v-11.24a.96.96 0 0 1 .482-.835l.01-.011c.008 0 .015-.007.022-.007l1.634-.922V8.8h9.099a1.884 1.884 0 0 1 1.405.66c.346.387.54.886.543 1.405z" opacity=".1"/><path fill="#000" d="M23.816 10.896v20.442c.002.365-.092.724-.272 1.041-.19.335-.48.6-.83.759-.043.018-.09.036-.137.05a1.84 1.84 0 0 1-.605.102H10.867v-.363h.025v-11.24a.96.96 0 0 1 .482-.835l.01-.01c.008 0 .015-.008.022-.008l1.634-.921V8.89h8.827a1.944 1.944 0 0 1 1.677 1.001c.178.305.271.652.271 1.005z" opacity=".125"/><path fill="#000" d="M23.543 10.932v20.043a1.874 1.874 0 0 1-1.354 1.894c-.15.04-.303.059-.457.058h-10.84v-11.24a.96.96 0 0 1 .481-.835l.011-.011c.007 0 .015-.008.022-.008l1.633-.921V8.98h8.556a1.948 1.948 0 0 1 1.948 1.952z" opacity=".2"/><path fill="url(#b)" d="M21.595 8.98H1.949A1.95 1.95 0 0 0 0 10.932v19.68a1.95 1.95 0 0 0 1.949 1.952h19.646a1.95 1.95 0 0 0 1.948-1.952v-19.68a1.95 1.95 0 0 0-1.948-1.952z"/><path fill="#fff" d="M6.535 17.559a5.308 5.308 0 0 1 2.08-2.301 6.282 6.282 0 0 1 3.307-.83 5.843 5.843 0 0 1 3.058.787 5.253 5.253 0 0 1 2.025 2.2 7.115 7.115 0 0 1 .71 3.234 7.505 7.505 0 0 1-.732 3.385 5.38 5.38 0 0 1-2.084 2.277 6.072 6.072 0 0 1-3.174.808 5.983 5.983 0 0 1-3.127-.796 5.331 5.331 0 0 1-2.05-2.204 6.937 6.937 0 0 1-.716-3.197 7.7 7.7 0 0 1 .703-3.363zm2.217 5.404c.24.606.645 1.131 1.17 1.515a3.053 3.053 0 0 0 1.829.552 3.206 3.206 0 0 0 1.952-.569 3.304 3.304 0 0 0 1.136-1.519 5.86 5.86 0 0 0 .362-2.114 6.44 6.44 0 0 0-.341-2.14 3.39 3.39 0 0 0-1.096-1.574 3.02 3.02 0 0 0-1.935-.599 3.154 3.154 0 0 0-1.872.557c-.535.385-.95.915-1.196 1.527a6.073 6.073 0 0 0-.008 4.365z"/></g><defs><linearGradient id="b" x1="4.088" x2="19.495" y1="7.44" y2="34.08" gradientUnits="userSpaceOnUse"><stop stop-color="#1784D9"/><stop offset=".5" stop-color="#107AD5"/><stop offset="1" stop-color="#0A63C9"/></linearGradient><clipPath id="a"><path fill="#fff" d="M0 .272h46v41H0z"/></clipPath></defs></svg>