<svg xmlns:xlink="http://www.w3.org/1999/xlink" xmlns="http://www.w3.org/2000/svg" width="38" height="39" fill="none"><g fill-rule="evenodd" clip-path="url(#a)" clip-rule="evenodd"><path fill="#36C5F0" d="M13.932.272a3.799 3.799 0 1 0 .002 7.599h3.8V4.073a3.803 3.803 0 0 0-3.802-3.8c.002 0 .002 0 0 0zm0 10.134H3.8a3.8 3.8 0 0 0-.001 7.6h10.133a3.8 3.8 0 1 0 0-7.6z"/><path fill="#2EB67D" d="M38 14.205a3.8 3.8 0 0 0-3.8-3.8 3.8 3.8 0 0 0-3.801 3.8v3.8h3.8a3.8 3.8 0 0 0 3.801-3.8zm-10.133 0V4.072a3.8 3.8 0 0 0-7.6 0v10.133a3.8 3.8 0 1 0 7.6 0z"/><path fill="#ECB22E" d="M24.066 38.272a3.8 3.8 0 1 0 0-7.598h-3.8v3.799a3.802 3.802 0 0 0 3.8 3.8zm0-10.135h10.133a3.8 3.8 0 0 0 .002-7.6H24.067a3.8 3.8 0 0 0-.001 7.6z"/><path fill="#E01E5A" d="M0 24.337a3.8 3.8 0 0 0 3.8 3.8 3.8 3.8 0 0 0 3.8-3.8v-3.799H3.8a3.8 3.8 0 0 0-3.8 3.8zm10.133 0v10.134a3.8 3.8 0 0 0 7.6.001V24.34a3.8 3.8 0 0 0-7.6-.003c0 .002 0 0 0 0z"/></g><defs><clipPath id="a"><path fill="#fff" d="M0 .272h38v38H0z"/></clipPath></defs></svg>