<svg xmlns:xlink="http://www.w3.org/1999/xlink" xmlns="http://www.w3.org/2000/svg" width="100" height="30" fill="none"><path fill="#000" d="M15.416 0C7.248 0 .626 6.622.626 14.79s6.622 14.79 14.79 14.79c8.169 0 14.79-6.622 14.79-14.79S23.585 0 15.416 0zm6.782 21.331a.921.921 0 0 1-1.268.306c-3.472-2.121-7.844-2.601-12.992-1.425a.923.923 0 0 1-.413-1.798h.002c5.634-1.287 10.467-.733 14.365 1.65a.922.922 0 0 1 .306 1.267zm1.81-4.027a1.153 1.153 0 0 1-1.586.38c-3.975-2.444-10.035-3.152-14.738-1.724a1.155 1.155 0 0 1-1.439-.768c-.184-.61.16-1.253.77-1.439 5.37-1.63 12.048-.84 16.613 1.965.543.335.714 1.045.38 1.586zm.156-4.193c-4.767-2.832-12.632-3.092-17.183-1.71a1.383 1.383 0 1 1-.803-2.647c5.224-1.586 13.91-1.28 19.397 1.978a1.38 1.38 0 0 1 .486 1.892c0 .002-.001.002-.002.003a1.382 1.382 0 0 1-1.895.484zm16.7.542c-2.554-.609-3.008-1.036-3.008-1.934 0-.849.799-1.42 1.987-1.42 1.152 0 2.292.434 3.49 1.326a.165.165 0 0 0 .125.031.164.164 0 0 0 .111-.068l1.247-1.758a.168.168 0 0 0-.032-.227c-1.425-1.143-3.028-1.7-4.904-1.7-2.757 0-4.684 1.655-4.684 4.023 0 2.539 1.662 3.438 4.534 4.132 2.442.563 2.856 1.034 2.856 1.877 0 .934-.834 1.515-2.176 1.515-1.49 0-2.707-.503-4.067-1.68a.166.166 0 0 0-.237.018l-1.399 1.664a.168.168 0 0 0 .016.233c1.582 1.413 3.529 2.158 5.63 2.158 2.97 0 4.89-1.623 4.89-4.136.005-2.12-1.264-3.295-4.374-4.052l-.005-.002zm11.102-2.518c-1.288 0-2.344.507-3.216 1.546v-1.17a.167.167 0 0 0-.166-.167h-2.287a.167.167 0 0 0-.166.167v13c0 .091.074.167.166.167h2.287a.168.168 0 0 0 .166-.168v-4.103c.873.977 1.929 1.456 3.216 1.456 2.393 0 4.816-1.842 4.816-5.364.004-3.522-2.42-5.365-4.814-5.365h-.002zm2.156 5.364c0 1.793-1.103 3.045-2.686 3.045-1.563 0-2.743-1.309-2.743-3.045s1.18-3.044 2.743-3.044c1.556 0 2.686 1.28 2.686 3.044zm8.868-5.364c-3.082 0-5.496 2.373-5.496 5.403 0 2.997 2.399 5.344 5.46 5.344 3.092 0 5.513-2.365 5.513-5.383 0-3.008-2.406-5.364-5.477-5.364zm0 8.426c-1.639 0-2.875-1.317-2.875-3.063 0-1.753 1.194-3.026 2.838-3.026 1.65 0 2.893 1.317 2.893 3.065 0 1.753-1.201 3.024-2.856 3.024zm12.057-8.217H72.53V8.77a.167.167 0 0 0-.166-.167h-2.287a.168.168 0 0 0-.168.167v2.573h-1.098a.167.167 0 0 0-.167.167v1.965c0 .093.075.168.167.168h1.098v5.086c0 2.054 1.023 3.096 3.041 3.096.82 0 1.5-.17 2.141-.534a.164.164 0 0 0 .085-.145v-1.872a.167.167 0 0 0-.242-.148c-.44.22-.866.323-1.342.323-.733 0-1.062-.334-1.062-1.08v-4.725h2.517a.167.167 0 0 0 .166-.168v-1.965a.162.162 0 0 0-.156-.167h-.008l-.002-.001zm8.767.01v-.316c0-.93.357-1.344 1.155-1.344.477 0 .86.094 1.29.237a.166.166 0 0 0 .219-.159V7.845a.165.165 0 0 0-.119-.16 6.258 6.258 0 0 0-1.9-.273c-2.11 0-3.228 1.19-3.228 3.438v.484h-1.1a.168.168 0 0 0-.167.167v1.975c0 .093.076.168.168.168h1.099v7.842c0 .094.076.168.167.168h2.285a.167.167 0 0 0 .168-.168v-7.841h2.136l3.27 7.841c-.37.823-.736.988-1.234.988-.403 0-.828-.12-1.26-.359a.182.182 0 0 0-.133-.012.167.167 0 0 0-.1.09l-.775 1.7a.167.167 0 0 0 .073.218c.809.438 1.538.625 2.44.625 1.69 0 2.623-.788 3.445-2.903l3.966-10.25a.163.163 0 0 0-.017-.156.162.162 0 0 0-.137-.072h-2.38a.167.167 0 0 0-.16.112l-2.438 6.965-2.67-6.97a.166.166 0 0 0-.156-.107h-3.907v-.001zm-5.083-.01h-2.287a.168.168 0 0 0-.168.167v9.976c0 .093.076.167.168.167h2.287a.167.167 0 0 0 .168-.167v-9.975a.167.167 0 0 0-.167-.167v-.001zm-1.13-4.542a1.64 1.64 0 1 0-.002 3.279A1.64 1.64 0 0 0 77.6 6.8zm20.031 7.749a1.603 1.603 0 0 1-1.609-1.61c0-.882.714-1.617 1.618-1.617.904 0 1.609.727 1.609 1.609s-.714 1.618-1.618 1.618zm.01-3.067c-.826 0-1.449.655-1.449 1.458 0 .802.62 1.448 1.44 1.448a1.44 1.44 0 0 0 1.448-1.458c0-.801-.62-1.448-1.44-1.448zm.356 1.614.456.637h-.385l-.41-.584h-.352v.584h-.321v-1.689h.752c.394 0 .652.2.652.539.001.277-.16.446-.39.513h-.002zm-.272-.762h-.419v.534h.419c.208 0 .333-.102.333-.267 0-.174-.125-.267-.333-.267z"/></svg>