<svg xmlns:xlink="http://www.w3.org/1999/xlink" xmlns="http://www.w3.org/2000/svg" width="46" height="47" fill="none"><g fill-rule="evenodd" clip-path="url(#a)" clip-rule="evenodd"><path fill="red" d="M4.012 17.666a7.657 7.657 0 0 1 6.827-7.122c4.041-.402 8.1-.6 12.161-.596 4.234 0 8.318.209 12.161.598a7.655 7.655 0 0 1 6.827 7.12 88.129 88.129 0 0 1 0 11.213A7.657 7.657 0 0 1 35.161 36c-4.041.401-8.1.6-12.161.596-4.061.005-8.12-.195-12.161-.598a7.656 7.656 0 0 1-6.827-7.12 88.106 88.106 0 0 1 0-11.213z"/><path fill="#fff" d="m28.855 23.273-9.409 5.74V17.532l9.41 5.74z"/></g><defs><clipPath id="a"><path fill="#fff" d="M0 .272h46v46H0z"/></clipPath></defs></svg>