<?xml version="1.0" standalone="no"?>
<!DOCTYPE svg PUBLIC "-//W3C//DTD SVG 20010904//EN"
 "http://www.w3.org/TR/2001/REC-SVG-20010904/DTD/svg10.dtd">
<svg version="1.0" xmlns="http://www.w3.org/2000/svg"
 width="240.000000pt" height="72.000000pt" viewBox="0 0 240.000000 72.000000"
 preserveAspectRatio="xMidYMid meet">

<g transform="translate(0.000000,72.000000) scale(0.100000,-0.100000)"
fill="#000000" stroke="none">
<path d="M146 656 c-61 -23 -89 -47 -118 -106 -35 -67 -35 -112 -3 -177 30
-60 154 -183 184 -183 28 0 61 34 61 62 0 15 -26 49 -72 95 -66 66 -73 77 -73
113 0 54 31 85 85 85 37 0 47 -7 119 -79 l79 -78 7 40 c25 147 -131 279 -269
228z"/>
<path d="M170 500 c-33 -33 -24 -57 55 -140 45 -47 75 -87 75 -100 0 -58 -62
-110 -112 -94 -13 4 -57 40 -100 81 l-76 75 -7 -31 c-16 -75 26 -168 98 -215
34 -21 53 -26 106 -26 81 0 139 31 175 93 33 58 40 99 25 160 -10 45 -24 64
-93 135 -87 87 -110 98 -146 62z"/>
<path d="M590 350 l0 -150 100 0 100 0 0 25 c0 24 -2 25 -70 25 l-70 0 0 34 0
35 53 3 c48 3 52 5 55 31 3 27 2 27 -52 27 l-56 0 0 35 0 35 70 0 c68 0 70 1
70 25 l0 25 -100 0 -100 0 0 -150z"/>
<path d="M980 438 c0 -48 -3 -59 -12 -50 -17 17 -79 15 -105 -3 -33 -23 -47
-86 -29 -129 8 -19 23 -39 34 -45 27 -15 85 -14 100 1 9 9 12 9 12 0 0 -7 11
-12 25 -12 l25 0 0 150 0 150 -25 0 c-24 0 -25 -3 -25 -62z m-12 -100 c21 -21
14 -66 -13 -84 -23 -15 -27 -15 -50 0 -17 11 -25 26 -25 44 0 35 16 52 50 52
14 0 31 -5 38 -12z"/>
<path d="M1346 475 c-51 -47 -23 -121 58 -148 49 -17 65 -39 46 -62 -16 -19
-63 -14 -90 10 -18 16 -24 12 -44 -22 -10 -19 52 -53 97 -53 69 0 106 32 107
91 0 42 -11 54 -84 89 -28 14 -52 32 -54 42 -4 23 33 32 69 17 26 -10 33 -10
47 5 16 16 16 18 -7 37 -35 29 -110 26 -145 -6z"/>
<path d="M2210 350 l0 -150 29 0 c27 0 30 3 33 37 4 50 22 52 49 4 18 -33 28
-41 51 -41 15 0 28 2 28 4 0 3 -16 31 -35 63 l-35 58 37 37 37 38 -33 0 c-27
0 -41 -8 -67 -37 l-33 -38 -1 88 0 87 -30 0 -30 0 0 -150z"/>
<path d="M1080 329 c0 -68 11 -106 34 -121 16 -11 64 -10 87 2 13 7 19 7 19 0
0 -5 11 -10 25 -10 l25 0 0 100 0 100 -25 0 c-24 0 -25 -3 -25 -60 0 -47 -4
-64 -20 -80 -16 -16 -25 -18 -40 -10 -17 9 -20 21 -20 80 l0 70 -30 0 -30 0 0
-71z"/>
<path d="M1560 259 l0 -139 25 0 c23 0 25 3 25 50 0 47 11 63 25 40 3 -5 22
-10 41 -10 83 0 124 103 68 169 -24 29 -28 30 -105 29 l-79 -1 0 -138z m125
95 c27 -11 38 -53 20 -80 -18 -28 -51 -31 -77 -7 -24 21 -23 48 2 73 22 22 29
23 55 14z"/>
<path d="M1831 376 c-44 -46 -33 -138 18 -166 25 -13 67 -13 92 0 13 7 19 7
19 0 0 -5 11 -10 25 -10 25 0 25 0 25 99 l0 98 -79 1 c-70 1 -80 -1 -100 -22z
m109 -36 c11 -11 20 -29 20 -39 0 -41 -59 -68 -88 -39 -17 17 -15 64 4 82 21
21 40 20 64 -4z"/>
<path d="M2060 300 l0 -100 25 0 c23 0 25 4 25 44 0 61 14 94 45 102 32 8 37
54 6 54 -11 0 -23 -4 -26 -10 -3 -5 -11 -10 -16 -10 -6 0 -7 5 -4 10 4 6 -7
10 -24 10 l-31 0 0 -100z"/>
</g>
</svg>
