<?xml version="1.0" standalone="no"?>
<!DOCTYPE svg PUBLIC "-//W3C//DTD SVG 20010904//EN"
 "http://www.w3.org/TR/2001/REC-SVG-20010904/DTD/svg10.dtd">
<svg version="1.0" xmlns="http://www.w3.org/2000/svg"
 width="466.000000pt" height="156.000000pt" viewBox="0 0 466.000000 156.000000"
 preserveAspectRatio="xMidYMid meet">

<g transform="translate(0.000000,156.000000) scale(0.100000,-0.100000)"
fill="#000000" stroke="none">
<path d="M1451 1286 c-15 -8 -84 -116 -183 -282 -87 -148 -166 -275 -175 -281
-24 -18 -32 -8 -124 148 -45 77 -91 146 -103 154 -11 8 -38 15 -59 15 -63 0
-111 -66 -90 -123 4 -13 71 -130 148 -261 143 -244 162 -266 219 -266 14 0 39
12 55 28 45 41 461 751 461 786 0 39 -58 96 -96 96 -16 -1 -40 -7 -53 -14z"/>
<path d="M2133 1130 c-12 -5 -26 -18 -32 -29 -7 -13 -11 -133 -11 -341 l0
-321 25 -24 c30 -30 54 -31 89 -4 l26 20 0 329 c0 298 -2 330 -17 348 -22 25
-51 33 -80 22z"/>
<path d="M2373 1130 c-12 -5 -26 -18 -32 -29 -7 -13 -11 -134 -11 -345 l0
-325 26 -20 c35 -27 59 -26 89 4 l25 24 0 324 c0 295 -2 327 -17 345 -22 25
-51 33 -80 22z"/>
<path d="M3120 1120 c-24 -24 -26 -67 -4 -98 22 -32 76 -30 103 4 27 35 26 59
-4 89 -29 30 -68 32 -95 5z"/>
<path d="M3434 1128 c-27 -13 -44 -49 -44 -93 0 -27 -4 -34 -21 -37 -12 -2
-31 -15 -42 -29 -26 -36 -13 -78 31 -99 l32 -15 0 -155 c0 -85 4 -171 10 -189
31 -108 188 -159 218 -71 15 43 -7 77 -60 94 -16 5 -18 22 -18 166 l0 160 25
0 c30 0 75 41 75 68 0 32 -38 70 -71 74 -29 3 -31 6 -33 46 -3 64 -54 103
-102 80z"/>
<path d="M1019 1021 c-20 -20 -29 -39 -29 -61 0 -39 75 -171 93 -164 7 2 30
37 51 77 44 81 44 110 1 153 -34 34 -79 32 -116 -5z"/>
<path d="M477 1029 c-26 -15 -50 -68 -43 -99 9 -47 283 -503 313 -522 41 -26
78 -22 115 11 58 52 51 73 -111 346 -78 132 -151 248 -162 258 -23 19 -84 22
-112 6z"/>
<path d="M1659 967 c-129 -48 -200 -149 -200 -284 0 -82 30 -150 91 -207 67
-63 109 -79 205 -80 132 0 213 53 189 122 -16 46 -51 55 -119 31 -74 -26 -123
-19 -173 25 l-36 31 100 6 c54 4 142 7 195 8 114 1 129 11 129 83 0 147 -120
267 -274 275 -44 2 -85 -2 -107 -10z m186 -161 c19 -15 35 -31 35 -37 0 -5
-55 -9 -130 -9 -71 0 -130 4 -130 8 0 12 29 37 65 57 44 23 115 15 160 -19z"/>
<path d="M3830 963 c-67 -24 -154 -115 -174 -183 -21 -72 -20 -128 4 -193 52
-140 196 -218 343 -187 31 6 71 21 89 33 28 19 33 29 33 61 0 30 -6 43 -26 58
-25 19 -26 19 -92 -3 -59 -19 -73 -20 -107 -10 -39 12 -100 55 -90 64 3 3 90
9 194 13 211 8 226 13 226 77 0 73 -29 138 -88 197 -87 86 -199 112 -312 73z
m163 -137 c18 -7 43 -25 56 -40 l24 -26 -138 0 -138 0 24 26 c46 51 111 66
172 40z"/>
<path d="M2576 908 c-13 -19 -16 -60 -16 -250 0 -215 1 -229 20 -248 27 -27
66 -25 95 5 24 23 25 29 25 164 0 135 1 140 26 170 20 25 34 31 64 31 89 0
100 -24 100 -210 0 -127 2 -142 20 -160 27 -27 66 -25 96 5 l26 26 -4 167 c-3
151 -5 172 -26 214 -56 113 -195 139 -271 53 -31 -35 -31 -35 -31 -10 0 59
-91 90 -124 43z"/>
<path d="M3143 920 c-39 -16 -43 -40 -43 -265 l0 -216 25 -24 c31 -32 59 -32
90 0 l25 24 0 219 c0 195 -2 222 -17 240 -22 25 -51 33 -80 22z"/>
</g>
</svg>
