<svg xmlns:xlink="http://www.w3.org/1999/xlink" xmlns="http://www.w3.org/2000/svg" width="45" height="47" fill="none"><g clip-path="url(#a)"><path fill="#0BA25E" d="M14.686 3.426h.039l.004.045-.05.002.007-.045v-.002zm-.15.295.136-.202.062-.009c.046.57.209 1.119.332 1.673l2.725 12.156c.29 1.024.445 2.08.726 3.104.18.956.465 1.889.617 2.85l-.185.316-.062.1-.022.04a.446.446 0 0 1-.016.03l-.137.256a1.188 1.188 0 0 1-.027.047l-.061.113-.03.053-.073.13a.428.428 0 0 1-.016.03l-.09.16c-.01.014-.024.043-.032.057l-.035.06-.088.157-.028.049-.055.094-.037.065-.14.25-.082.139-.038.066-.132.234c-.008.013-.022.041-.03.053l-.066.122-.025.045-.096.17-.139.24-.031.055-.062.115a.955.955 0 0 0-.023.042l-.072.128a.737.737 0 0 1-.026.045l-.147.258-.026.046-.053.09-.035.063-.132.237a1.5 1.5 0 0 0-.023.04l-.072.132-.02.039-.075.132-.024.041-.138.235c-.01.016-.027.048-.037.063l-.053.1-.026.049-.09.16a.71.71 0 0 0-.03.053c-.01.013-.023.039-.03.052-.15.256-.283.52-.448.766-.936 1.56-1.797 3.17-2.704 4.749l-4.412 7.808c-.22.404-.472.793-.661 1.216l-.04.057c-.35-.519-.623-1.092-.947-1.631L.077 29.305l9.43-16.684.012-.02.086-.151a.928.928 0 0 1 .015-.025l.088-.153.033-.056.123-.222.024-.043.065-.106.046-.07.128-.195.014-.063.076-.15.014-.025.088-.15.035-.061.04-.07.074-.132.031-.056.062-.11.028-.05.138-.24.028-.05.064-.12.021-.038.085-.151.044-.072.057-.088.048-.07.044-.072.047-.093.065-.14.048-.07.035-.05.132-.113-.006-.105a.459.459 0 0 1 .024-.05l.074-.153.025-.045.066-.11.048-.072.12-.197c.01-.018.025-.054.034-.072l.046-.104.06-.11.057-.084.05-.068.043-.072.084-.176.076-.15a2.18 2.18 0 0 0 .044-.074l.058-.088.049-.07.044-.072.044-.093.05-.103.06-.101.044-.068.129-.2.015-.062.076-.149a.16.16 0 0 1 .013-.024l.123-.214.036-.06.087-.157.014-.026.083-.147a.285.285 0 0 0 .016-.027l.088-.153.031-.055.036-.063.084-.153.021-.038.07-.116c.012-.018.036-.053.044-.07l.129-.197a.83.83 0 0 1 .013-.061l.075-.147.026-.045.067-.108.047-.07.123-.2.018-.058.077-.148.014-.027.09-.154.03-.054c.01-.015.024-.045.032-.059l.088-.16a.253.253 0 0 0 .015-.026l.084-.144.01-.018-.006.002z"/><path fill="#FCCD48" d="m14.726 3.426 8.566-.006 7.088.013.145.273.026.05.686 1.22.015.027 1.319 2.336.239.413.026.048.332.592a.158.158 0 0 1 .015.027l.333.59.026.047.354.63 3.142 5.56c-.12.54.17 1.074.009 1.615a7.497 7.497 0 0 1-1.543 4.077c-.293.324-.01.775-.04 1.16-.317.39-.722.682-1.106.997.001.294.002.589-.011.885-.343.23-.734.364-1.081.587l-.11.361c-.28.135-.577.222-.856.36l-3.296-1.017c-1.024-.346-2.072-.618-3.085-.998l-.058-.106a.376.376 0 0 1-.018-.032l-.083-.144-.035-.06c-.009-.014-.022-.04-.03-.055a3.926 3.926 0 0 1-.17-.348l-.006-.011-.006-.01-.156-.25-.018-.03-.026-.042-.062-.103-.152-.262a2.757 2.757 0 0 0-.038-.066l-.052-.093-.029-.05-.085-.15-.015-.027-.09-.157-.031-.057-.035-.065-.165-.297-.03-.054-.14-.257-.015-.03-.024-.042-.066-.1a9.09 9.09 0 0 1-.262-.486l-.023-.041-.067-.096-.155-.284a.324.324 0 0 1-.017-.031l-.023-.043-.07-.117-.076-.13-.03-.051-.135-.238c-.01-.014-.023-.042-.031-.056a9.223 9.223 0 0 1-.173-.306l-.018-.033-.083-.146a.806.806 0 0 1-.034-.059l-.03-.054-.088-.158-.018-.03-.072-.131-.024-.043-.134-.24a2.346 2.346 0 0 0-.028-.048l-.162-.279L15.21 4.311c-.153-.27-.292-.55-.48-.798l-.004-.04-.003-.045.003-.002z"/><path fill="#089156" d="M14.68 3.47h.05l.004.04-.062.009.01-.049h-.002zm.054.04c.187.248.325.528.479.797l7.321 12.965-3.399 6.02c-.152-.962-.436-1.895-.617-2.85-.28-1.025-.436-2.081-.726-3.105-.334-1.653-.74-3.291-1.105-4.938l-1.62-7.217c-.123-.555-.287-1.104-.332-1.673h-.001zm-.209.23.012-.018-.012.018zm-.098.171a.253.253 0 0 0 .015-.027l-.015.027zm-.119.218.032-.059-.032.059zm-.031.053.03-.053-.03.053zm-.104.182.014-.027-.014.027zm-.093.207.018-.058-.018.058zm-.123.2.123-.201-.123.2zm-.049.07.048-.07-.047.07zm-.092.152.027-.045-.027.045zm-.088.207.014-.062-.014.062zm-.128.197.128-.197-.128.197zm-.044.068.044-.069-.044.07zm-.092.157.02-.038-.02.038zm-.12.215.035-.062-.035.062zm-.032.055.031-.055-.031.055zm-.202.352.014-.027-.014.027zm-.123.216.035-.06-.036.06zm-.034.06.035-.06-.035.06zm-.102.178a.16.16 0 0 1 .013-.024l-.013.024zm-.091.21.015-.06-.015.06zm-.127.202.129-.2-.129.2zm-.044.068.044-.068-.044.068zm-.109.204.051-.103-.05.103zm-.09.166.045-.072-.044.072zm-.049.07.05-.07-.05.07zm-.101.162.043-.075-.043.075zm-.115.233.04-.083-.04.083zm-.086.166.044-.072-.044.072zm-.05.067.05-.068-.05.068zm-.116.193.059-.11-.059.11zm-.08.175.034-.071-.033.071zm-.12.198.12-.198-.12.198zm-.05.073.049-.072-.049.072zm-.09.153.024-.045-.024.045zm-.099.202.024-.05-.024.05zm-.124.22.124-.22.007.106-.132.114zm-.034.048.035-.049-.035.05zm-.114.21.064-.14-.064.14zm-.09.166.043-.072-.044.072zm-.049.07.048-.07-.048.07zm-.101.162.044-.072-.044.072zm-.106.188.022-.037-.021.037zm-.092.171.028-.05-.028.05zm-.167.29.028-.05-.028.05zm-.093.166.032-.055-.032.056zm-.114.203.04-.07-.04.07zm-.034.058.036-.06-.036.06zm-.102.176.014-.025-.014.025zm-.09.213.014-.063-.013.063zm-.128.195.129-.195-.129.195zm-.045.07.045-.07-.045.07zm-.09.15.025-.044-.025.043zm-.123.221.035-.063-.035.063zm-.032.056.033-.056-.033.056zm-.102.177.015-.025a.237.237 0 0 0-.015.025zm-.096.17.011-.02-.011.02zm9.38 11.087.062-.099-.062.1zm-.038.07a.477.477 0 0 0 .016-.03l-.016.03zm-.165.304.027-.047-.027.047zm-.092.167.03-.054-.03.054zm-.088.16.016-.03-.016.03zm-.123.217.032-.056-.032.056zm-.035.06.035-.06-.035.06zm-.117.205.028-.049-.028.049zm-.091.161.037-.065-.037.065zm-.165.293L18 25.3l-.026.045zm-.094.162.038-.067-.038.067zm-.161.288.03-.055-.03.055zm-.092.166.025-.045-.025.045zm-.096.17.028-.05-.029.05zm-.17.295.031-.056-.031.056zm-.085.157.023-.042-.023.042zm-.097.173.026-.045-.026.045zm-.174.305.026-.046-.026.046zm-.088.153.035-.063-.035.063zm-.155.278.022-.04-.022.04zm-.094.171.021-.038-.02.038zm-.098.174.024-.042-.024.042zm-.176.299.037-.063-.037.063zm-.079.148.026-.05-.026.05zm-.12.213.03-.054-.03.054zm-.029.049.03-.052-.03.052z"/><path fill="#10985B" d="m30.524 3.705.027.049-.027-.05zm.714 1.27.016.027c-.005-.006-.012-.02-.016-.027zm1.319 2.336.014.027-.014-.027zm.254.44.027.049-.027-.049zm.359.64zm.348.617.026.047-.026-.047zm.355.626.026.048-.026-.048z"/><path fill="#F9C941" d="m37.042 15.244 4.61 8.173.141.236.028.047.07.123.018.034.088.156.035.063.032.055.1.178.086.151.014.024.086.153.035.06.033.06.088.16.05.123.024.05.011.026.02.027.052.08.073.12.044.071.058.095.07.161.027.049.009.018.008.012.154.233.04.065.053.09.031.055.088.16.032.057.031.057.088.152.016.027.08.144.02.036.081.144.038.065.032.058.185.338.035.075.04.094.042.071.053.07.061.088.044.069.088.157.032.058.032.056.088.155.014.027.084.149.014.024.085.153.035.063.035.06.088.155.106.203v.081c-2.2-.647-4.363-1.412-6.569-2.035l-6.022-1.918c.279-.137.577-.225.855-.36l.111-.36c.347-.223.738-.357 1.081-.588.013-.297.012-.59.012-.885.383-.314.789-.607 1.104-.997.032-.385-.252-.836.04-1.16a7.495 7.495 0 0 0 1.544-4.076c.161-.541-.128-1.077-.009-1.615h-.002zm7.853 13.994.045.002.027.068-.053.004-.02-.074z"/><path fill="#E3B73A" d="m22.695 17.55.028.048-.028-.049zm.163.289.024.042-.024-.042zm.097.174.017.03-.017-.03zm.105.189.03.053-.03-.053zm.03.053.033.059-.033-.058zm.118.205.017.033-.017-.033zm.191.34.031.055-.03-.056zm.165.293.03.051-.03-.051zm.106.182.07.117-.07-.117zm.094.16c.005.01.01.02.017.03l-.018-.03h.001zm.171.315.067.096-.067-.096zm.09.136.016.03a.475.475 0 0 1-.016-.03zm.264.485.066.101-.066-.1zm.09.144.015.03-.016-.03zm.153.288.031.053-.03-.053zm.088.155.035.063-.035-.063zm.108.195.035.066-.035-.066zm.035.065.032.056-.032-.056zm.122.213c.003.008.011.02.015.027l-.015-.026zm.1.177.028.049-.028-.05zm.082.143.038.066-.038-.066zm.19.328.061.104-.062-.104zm.086.144.017.03-.017-.03zm.173.283.006.009.005.012-.011-.021zm.183.368.03.054-.03-.054zm.03.054.035.061-.036-.06zm.118.207.018.032-.018-.032zm.076.138c1.014.381 2.062.653 3.086.998l3.295 1.017 6.023 1.918c-.03.437.054.886-.053 1.315-.082.418-.571.483-.772.818-2.704 0-5.408.009-8.112-.003l-.058-.005-3.41-6.058h.002z"/><path fill="#E8B835" d="m41.625 23.369.028.048-.028-.048zm.167.284.028.047-.028-.047zm.098.17.018.034-.018-.034zm.106.189.035.063-.035-.063zm.035.063.032.056-.032-.056zm.118.208.014.025-.014-.025zm.1.175.014.025-.014-.024zm.1.178.035.06-.035-.06zm.035.06.033.06-.033-.06zm.12.22.05.124-.05-.123zm.075.171.031.053-.02-.027-.01-.027v.001zm.084.133.073.119-.073-.119zm.072.119.044.072-.044-.072zm.102.166.07.162-.07-.162zm.096.211.018.03-.009-.01-.008-.019zm.172.265.04.065-.04-.065zm.092.155.032.056-.032-.056zm.12.216.032.057-.031-.057zm.031.057.032.057-.032-.057zm.218.38.02.037-.02-.036zm.101.182.038.066-.038-.066zm.036.066.033.058-.032-.058zm-5.379.166c2.207.623 4.369 1.39 6.569 2.035l.019.074c-2.47.057-4.941.009-7.411.023.202-.332.69-.399.772-.817.105-.43.022-.878.052-1.316v.001zm5.597.23.035.075-.035-.076zm.074.167.042.072-.042-.072zm.043.073.052.07-.053-.07zm.112.157.044.07-.044-.07zm.132.227.031.057-.031-.057z"/><path fill="#E8B835" d="m44.315 28.115.032.057-.032-.057zm.119.21.014.027-.014-.027zm.097.176.014.025-.014-.025zm.099.176.035.063-.035-.063zm.035.063.035.06-.035-.06zm.123.215.013.025-.013-.025zm.106.203.044.083-.046-.002v-.08h.002z"/><path fill="#296AD9" d="m13.016 34.06 2.704-4.75 13.614.019.058.004c-2.294.076-4.597-.02-6.89.04-.438.287-.73.755-1.15 1.069-.389.29-.676.694-1.047 1.004-.521.393-.909.937-1.438 1.321-.611.662-1.318 1.22-1.933 1.878-.463.363-.85.811-1.28 1.21-.475.351-.837.827-1.28 1.217a.591.591 0 0 0-.044.04c-.024.018-.07.058-.094.077l-.044.038c-.349.276-.615.64-.958.923l-.044.037-.044.038c-.5.42-.9.95-1.425 1.341-.527.536-1.125.996-1.626 1.56-.742.624-1.384 1.36-2.148 1.957.19-.422.441-.811.662-1.217l4.412-7.807h-.005zm-5.113 9.082.038-.057-.002.058h-.036z"/><path fill="#2A71E9" d="m29.39 29.332 8.113.003 7.41-.023.054-.004.035.01v.006L37.188 43.15c-9.75-.003-19.5.008-29.248-.008l.003-.058c.764-.598 1.406-1.333 2.148-1.957.5-.564 1.098-1.024 1.626-1.56.524-.39.925-.921 1.425-1.34l.045-.039.044-.037c.343-.283.61-.647.958-.923l.044-.038c.024-.018.07-.058.094-.077l.044-.04c.443-.389.806-.865 1.28-1.216.43-.4.817-.848 1.28-1.211.616-.659 1.322-1.217 1.933-1.878.529-.385.917-.929 1.438-1.32.372-.31.659-.715 1.047-1.005.42-.315.712-.782 1.15-1.07 2.293-.059 4.596.037 6.89-.039l.002-.002z"/><path fill="#286EE6" d="m14.326 37.114.044-.04-.044.04zm-.093.077.094-.077-.094.077zm-.044.038.044-.038-.044.038zm-1.002.961.044-.038-.044.038zm-.045.037.043-.038-.043.038z"/></g><defs><clipPath id="a"><path fill="#fff" d="M0 .272h45v46H0z"/></clipPath></defs></svg>