<svg xmlns:xlink="http://www.w3.org/1999/xlink" xmlns="http://www.w3.org/2000/svg" width="70" height="28" fill="none"><path fill="#000" d="M10.068 1.004c-5.29 0-9.783 3.78-9.783 9.598 0 5.231 3.998 9.38 9.725 9.38 5.289 0 9.782-3.78 9.782-9.599.012-5.22-3.986-9.379-9.725-9.379zm0 17.86c-3.446 0-5.911-3.526-5.911-8.389 0-4.655 2.339-8.33 5.864-8.33 3.446 0 5.911 3.526 5.911 8.388 0 4.644-2.339 8.33-5.864 8.33zM64.924 8.206V9l1.06.207c.369.08.473.369.242.945l-2.431 5.842c-.104.242-.242.242-.311 0l-2.258-5.842c-.242-.6-.104-.864.265-.945L62.539 9v-.795h-9.368V9l1.06.207c.37.08.507.369.266.945l-2.34 6.153c-.103.242-.242.242-.31 0l-2.374-6.153c-.208-.6-.104-.864.265-.945L50.786 9v-.795h-5.945v.806l.587.127c.392.08.634.288.795.657l4.022 9.886h1.82l4.021-9.886c.208-.519.45-.738.865-.738h.161c.346 0 .6.127.818.634l4.206 10.266-1.13 2.685c-.737 1.786-1.278 2.109-1.97 2.109-.288 0-.599-.046-.922-.046-.818 0-1.313.587-1.313 1.21 0 .714.588 1.21 1.498 1.21 1.313 0 2.604-1.06 3.687-3.573l5.703-13.446c.266-.6.6-.864 1.153-.98l.576-.103v-.818h-4.494zm-36.87 10.462-4.39.553c-1.44.184-1.901-.288-1.901-1.026 0-.864.944-1.555 4.24-1.555h.046c2.385 0 5.208-1.44 5.208-4.575 0-1.002-.369-1.912-1.06-2.661a3.306 3.306 0 0 1-.311-1.625c0-2.316 1.578-3.63 3.215-3.63.68 0 .898.104.898.588 0 .127-.034.242-.034.392 0 .818.68 1.579 1.659 1.579 1.002 0 1.625-.795 1.625-1.66 0-1.313-1.187-2.292-3.365-2.292-3.007 0-5.312 1.947-5.312 4.92 0 .242.035.426.035.599a6.167 6.167 0 0 0-2.454-.473c-2.374 0-5.208 1.44-5.208 4.575 0 1.44.818 2.788 2.235 3.572-2.109.288-3.307 1.417-3.307 3.18 0 1.786 1.417 3.076 4.079 2.765l3.837-.472c1.912-.242 2.546.449 2.546 1.44 0 1.74-1.624 3.134-4.24 3.134-2.074 0-2.846-.737-2.846-1.786l.035-.518c0-.634-.392-1.072-1.026-1.107-.737 0-1.187.519-1.187 1.28 0 1.74 1.66 3.283 5.047 3.283 3.814 0 6.234-2.466 6.234-5.312.011-2.246-1.798-3.48-4.298-3.168zm-1.97-9.91c1.232 0 2.235 1.395 2.235 3.527 0 1.832-.841 3.422-2.155 3.422-1.267 0-2.258-1.395-2.258-3.526-.012-1.82.83-3.422 2.178-3.422z"/><path fill="#000" d="M43.805 18.334V.13l-4.632 1.187v.553l1.313.426c.208.08.289.242.289.45v15.52c0 .288-.242.507-.588.507l-1.175.023-1.245-.023c-.346 0-.588-.207-.588-.507V7.768l-4.62 1.175v.554l1.314.426c.207.08.288.242.288.45v7.973c0 .242-.127.368-.311.391l-1.072.127v.841h12.617v-.84l-1.279-.128c-.173-.034-.311-.16-.311-.403z"/></svg>