<svg xmlns:xlink="http://www.w3.org/1999/xlink" xmlns="http://www.w3.org/2000/svg" width="120" height="50" fill="none" viewBox="0 0 177 50"><path fill="#000" d="M61.57 27.753c-1.493-.826-2.28-1.494-2.28-2.437 0-1.219 1.062-1.965 2.752-1.965 1.966 0 3.695.825 3.695.825l1.376-4.206s-1.258-.982-4.992-.982c-5.189 0-8.805 2.987-8.805 7.153 0 2.359 1.69 4.167 3.931 5.464 1.808 1.022 2.437 1.769 2.437 2.83 0 1.14-.904 2.044-2.594 2.044-2.516 0-4.874-1.297-4.874-1.297l-1.455 4.205s2.202 1.455 5.857 1.455c5.346 0 9.158-2.634 9.158-7.35.079-2.595-1.886-4.403-4.205-5.74zm21.304-8.844c-2.633 0-4.677 1.258-6.288 3.144l-.08-.039 2.28-11.949h-5.974L67.034 40.45h5.935l1.966-10.377c.786-3.93 2.79-6.328 4.677-6.328 1.337 0 1.848.904 1.848 2.2 0 .826-.08 1.809-.276 2.634l-2.24 11.91h5.935l2.32-12.264c.274-1.297.432-2.83.432-3.89.078-3.42-1.651-5.425-4.757-5.425zm18.278 0c-7.154 0-11.91 6.446-11.91 13.64 0 4.598 2.83 8.332 8.176 8.332 7.036 0 11.752-6.289 11.752-13.64.04-4.284-2.437-8.332-8.018-8.332zm-2.909 17.373c-2.044 0-2.87-1.73-2.87-3.891 0-3.42 1.77-8.962 4.993-8.962 2.122 0 2.79 1.808 2.79 3.577 0 3.695-1.768 9.276-4.913 9.276zm26.178-17.373c-4.009 0-6.289 3.538-6.289 3.538h-.079l.354-3.184h-5.267c-.275 2.161-.747 5.424-1.218 7.9l-4.127 21.697h5.935l1.651-8.804h.118s1.218.786 3.498.786c6.996 0 11.556-7.154 11.556-14.386 0-3.97-1.769-7.547-6.132-7.547zm-5.66 17.491c-1.533 0-2.437-.865-2.437-.865l.983-5.542c.707-3.694 2.633-6.17 4.677-6.17 1.808 0 2.358 1.69 2.358 3.262 0 3.812-2.279 9.315-5.581 9.315zm20.282-26.02c-1.887 0-3.42 1.493-3.42 3.458 0 1.77 1.101 2.988 2.791 2.988h.079c1.847 0 3.459-1.258 3.498-3.46.039-1.768-1.14-2.986-2.948-2.986zm-8.333 30.069h5.975l4.048-21.068h-6.014l-4.009 21.068zm25.117-21.108h-4.128l.197-.982c.354-2.044 1.533-3.852 3.538-3.852 1.061 0 1.886.314 1.886.314l1.179-4.638s-1.022-.511-3.223-.511c-2.122 0-4.205.59-5.817 1.965-2.044 1.73-2.987 4.206-3.459 6.722l-.157.982h-2.752l-.864 4.481h2.751l-3.144 16.627h5.935l3.144-16.627h4.088l.826-4.48zm14.307.039s-3.734 9.355-5.385 14.465h-.079c-.117-1.65-1.454-14.464-1.454-14.464h-6.249l3.576 19.338c.079.433.04.708-.118.983-.707 1.336-1.847 2.633-3.223 3.577-1.1.825-2.358 1.336-3.341 1.69L155.512 50c1.219-.275 3.695-1.258 5.817-3.223 2.713-2.555 5.228-6.446 7.783-11.792l7.272-15.604h-6.25zM30.283 5.702s-.55.157-1.454.432c-.157-.51-.393-1.1-.708-1.729-1.022-1.965-2.555-3.027-4.363-3.027-.118 0-.236 0-.393.04-.04-.079-.118-.118-.157-.197C22.422.356 21.4-.037 20.18.003c-2.358.078-4.716 1.768-6.603 4.795-1.336 2.123-2.358 4.795-2.634 6.879-2.712.825-4.598 1.415-4.638 1.454-1.375.432-1.415.472-1.572 1.769C4.616 15.882 1 43.554 1 43.554l29.715 5.149V5.663c-.235 0-.353.04-.432.04zm-6.879 2.123c-1.572.471-3.301 1.022-4.991 1.533.471-1.848 1.415-3.695 2.515-4.914.432-.432 1.022-.943 1.69-1.258.669 1.415.826 3.341.787 4.639zm-3.223-6.21c.55 0 1.022.117 1.415.353-.628.314-1.257.825-1.847 1.415-1.494 1.612-2.633 4.127-3.105 6.525-1.415.432-2.83.865-4.127 1.258.864-3.774 4.048-9.473 7.664-9.552zm-4.56 21.618c.158 2.515 6.8 3.065 7.194 9 .275 4.678-2.476 7.862-6.446 8.098-4.796.314-7.43-2.516-7.43-2.516l1.023-4.323s2.633 2.004 4.756 1.847c1.375-.079 1.887-1.219 1.847-2.005-.196-3.302-5.62-3.105-5.974-8.53-.315-4.559 2.673-9.157 9.276-9.59 2.555-.157 3.852.472 3.852.472l-1.494 5.66s-1.69-.786-3.695-.629c-2.908.197-2.947 2.044-2.908 2.516zm9.356-15.88c0-1.18-.157-2.87-.708-4.284 1.808.353 2.673 2.358 3.066 3.576-.707.197-1.494.433-2.358.708zm6.643 41.271 12.341-3.066S38.656 9.672 38.617 9.436a.458.458 0 0 0-.432-.393c-.197 0-3.656-.079-3.656-.079s-2.122-2.043-2.909-2.83v42.49z"/></svg>