<svg xmlns:xlink="http://www.w3.org/1999/xlink" xmlns="http://www.w3.org/2000/svg" width="46" height="47" fill="none"><g clip-path="url(#a)"><path fill="#0079BF" d="M40.25.272H5.75A5.75 5.75 0 0 0 0 6.022v34.5a5.75 5.75 0 0 0 5.75 5.75h34.5a5.75 5.75 0 0 0 5.75-5.75v-34.5a5.75 5.75 0 0 0-5.75-5.75z"/><path fill="#fff" d="M37.26 6.252h-8.51a2.76 2.76 0 0 0-2.76 2.76v14.605a2.76 2.76 0 0 0 2.76 2.76h8.51a2.76 2.76 0 0 0 2.76-2.76V9.012a2.76 2.76 0 0 0-2.76-2.76zm-20.01 0H8.74a2.76 2.76 0 0 0-2.76 2.76v26.105a2.76 2.76 0 0 0 2.76 2.76h8.51a2.76 2.76 0 0 0 2.76-2.76V9.012a2.76 2.76 0 0 0-2.76-2.76z"/></g><defs><clipPath id="a"><path fill="#fff" d="M0 .272h46v46H0z"/></clipPath></defs></svg>